<?xml version="1.0" encoding="UTF-8"?>
<svg version="1.1" xmlns="http://www.w3.org/2000/svg" width="500" height="500">
<path d="M0 0 C4.45286347 2.18595116 7.69729858 5.30874548 11 9 C11 9.66 11 10.32 11 11 C11.66 11 12.32 11 13 11 C13 11.66 13 12.32 13 13 C13.66 13 14.32 13 15 13 C15 13.66 15 14.32 15 15 C15.66 15 16.32 15 17 15 C17 15.66 17 16.32 17 17 C18.32 17.66 19.64 18.32 21 19 C21 19.66 21 20.32 21 21 C21.66 21 22.32 21 23 21 C24.625 22.375 24.625 22.375 26 24 C26 24.66 26 25.32 26 26 C26.66 26 27.32 26 28 26 C30.77415469 30.32768131 31.59362382 33.59932355 30.75116348 38.5892477 C29.89515801 41.33647546 28.82145098 42.71552583 26.88372803 44.82594299 C26.25117851 45.51827593 25.618629 46.21060886 24.96691132 46.92392159 C21.93066435 50.1286857 18.85812152 53.28937424 15.73535156 56.40991211 C15.04664474 57.10197754 14.35793793 57.79404297 13.64836121 58.50708008 C11.39839378 60.76645537 9.14476074 63.0221276 6.890625 65.27734375 C5.31590617 66.85527909 3.74126135 68.43328828 2.16668701 70.0113678 C-1.11968798 73.30370625 -4.40809866 76.59399593 -7.69775391 79.88305664 C-11.91854608 84.10374663 -16.13238411 88.33130772 -20.34453964 92.56061459 C-23.58725787 95.81442355 -26.83448263 99.06370558 -30.08301544 102.31170845 C-31.63959497 103.86946979 -33.19454917 105.42885695 -34.74785614 106.98988152 C-36.91151688 109.16329532 -39.08136745 111.33033459 -41.25292969 113.49584961 C-41.89504898 114.14358841 -42.53716827 114.79132721 -43.19874573 115.45869446 C-43.79015854 116.04591278 -44.38157135 116.6331311 -44.99090576 117.23814392 C-45.75848772 118.00654303 -45.75848772 118.00654303 -46.54157639 118.79046535 C-49.95918081 121.62483454 -53.79265403 121.14762617 -58 121 C-60.4375 120.5 -60.4375 120.5 -62 120 C-62 119.34 -62 118.68 -62 118 C-62.55413574 117.77038574 -63.10827148 117.54077148 -63.67919922 117.30419922 C-66.64920524 115.63517206 -68.72046131 113.53903541 -71.1328125 111.1328125 C-71.61072235 110.6568161 -72.0886322 110.1808197 -72.58102417 109.69039917 C-73.58691227 108.68586791 -74.59029575 107.67882312 -75.59130859 106.66943359 C-77.1199101 105.13012555 -78.65888159 103.60177303 -80.19921875 102.07421875 C-81.17772522 101.0943906 -82.15561106 100.11394218 -83.1328125 99.1328125 C-84.46143311 97.80080811 -84.46143311 97.80080811 -85.81689453 96.44189453 C-90.28366537 91.44562503 -90.43584377 87.46329466 -90.31640625 80.91015625 C-89.64925675 74.77402812 -85.42703572 70.96103196 -81 67 C-80.34 67 -79.68 67 -79 67 C-79 66.34 -79 65.68 -79 65 C-78.34 65 -77.68 65 -77 65 C-77 64.34 -77 63.68 -77 63 C-76.34 63 -75.68 63 -75 63 C-75 62.34 -75 61.68 -75 61 C-73.625 59.375 -73.625 59.375 -72 58 C-71.34 58 -70.68 58 -70 58 C-70 57.34 -70 56.68 -70 56 C-69.34 56 -68.68 56 -68 56 C-68 55.34 -68 54.68 -68 54 C-67.34 54 -66.68 54 -66 54 C-66 53.34 -66 52.68 -66 52 C-65.34 52 -64.68 52 -64 52 C-64 51.34 -64 50.68 -64 50 C-63.34 50 -62.68 50 -62 50 C-62 49.34 -62 48.68 -62 48 C-61.34 48 -60.68 48 -60 48 C-60 47.34 -60 46.68 -60 46 C-59.34 46 -58.68 46 -58 46 C-57.67 45.01 -57.34 44.02 -57 43 C-56.34 43 -55.68 43 -55 43 C-55 42.34 -55 41.68 -55 41 C-54.34 41 -53.68 41 -53 41 C-53 40.34 -53 39.68 -53 39 C-52.34 39 -51.68 39 -51 39 C-51 38.34 -51 37.68 -51 37 C-50.34 37 -49.68 37 -49 37 C-49 36.34 -49 35.68 -49 35 C-48.34 35 -47.68 35 -47 35 C-47 34.34 -47 33.68 -47 33 C-46.34 33 -45.68 33 -45 33 C-45 32.34 -45 31.68 -45 31 C-44.34 31 -43.68 31 -43 31 C-43 30.34 -43 29.68 -43 29 C-41.625 27.375 -41.625 27.375 -40 26 C-39.34 26 -38.68 26 -38 26 C-38 25.34 -38 24.68 -38 24 C-37.34 24 -36.68 24 -36 24 C-36 23.34 -36 22.68 -36 22 C-34.01739574 20.31267723 -32.0167658 18.64633943 -30 17 C-29.67 16.34 -29.34 15.68 -29 15 C-28.34 15 -27.68 15 -27 15 C-27 14.34 -27 13.68 -27 13 C-26.34 13 -25.68 13 -25 13 C-25 12.34 -25 11.68 -25 11 C-24.34 11 -23.68 11 -23 11 C-23 10.34 -23 9.68 -23 9 C-22.34 9 -21.68 9 -21 9 C-21 8.34 -21 7.68 -21 7 C-20.34 7 -19.68 7 -19 7 C-19 6.34 -19 5.68 -19 5 C-18.34 5 -17.68 5 -17 5 C-17 4.34 -17 3.68 -17 3 C-11.68564505 -0.98820399 -6.3868859 -0.78100507 0 0 Z " fill="#8B5CF6" transform="translate(254,153)"/>
<path d="M0 0 C4.38449892 2.27656675 7.71159929 5.32472862 11 9 C11 9.66 11 10.32 11 11 C11.59546631 11.27166992 12.19093262 11.54333984 12.80444336 11.82324219 C16.29467648 13.69391089 18.78882536 16.46072539 21.5625 19.25 C22.4277832 20.09111328 22.4277832 20.09111328 23.31054688 20.94921875 C27.99326846 25.62653927 31.42644813 30.10363301 31.4375 37 C31.45683594 37.804375 31.47617187 38.60875 31.49609375 39.4375 C30.40257788 45.08589695 26.02818397 49.22693037 22.0859375 53.1796875 C21.16039062 54.1078125 20.23484375 55.0359375 19.28125 55.9921875 C18.80429687 56.46495117 18.32734375 56.93771484 17.8359375 57.42480469 C16.36476849 58.88515628 14.90471034 60.35601974 13.4453125 61.828125 C12.52234375 62.74851562 11.599375 63.66890625 10.6484375 64.6171875 C9.80458496 65.45878418 8.96073242 66.30038086 8.09130859 67.16748047 C6 69 6 69 4 69 C3.75099945 69.57366302 3.5019989 70.14732605 3.24545288 70.7383728 C1.81524615 73.33549589 0.16685851 75.08724966 -1.92724609 77.18603516 C-2.7350351 78.00012848 -3.5428241 78.8142218 -4.37509155 79.65298462 C-5.24904572 80.52289032 -6.12299988 81.39279602 -7.0234375 82.2890625 C-7.92115875 83.1886972 -8.81888 84.08833191 -9.74380493 85.01522827 C-11.64287247 86.9156566 -13.5438336 88.81393389 -15.44824219 90.70898438 C-17.88505089 93.13439899 -20.31277047 95.56868191 -22.73789024 98.00577736 C-25.05737733 100.33424226 -27.38448598 102.65505916 -29.7109375 104.9765625 C-30.5808432 105.85051666 -31.4507489 106.72447083 -32.34701538 107.62490845 C-33.56815536 108.83659195 -33.56815536 108.83659195 -34.81396484 110.07275391 C-35.52741058 110.78460846 -36.24085632 111.49646301 -36.97592163 112.22988892 C-40.46316003 115.27957288 -43.26725568 116.30322828 -47.875 116.375 C-48.69742188 116.40335937 -49.51984375 116.43171875 -50.3671875 116.4609375 C-56.30797482 115.42085901 -60.63952369 110.66896791 -64.765625 106.53515625 C-65.28509705 106.01996933 -65.80456909 105.50478241 -66.33978271 104.97398376 C-67.42794587 103.89152546 -68.51354983 102.80648885 -69.59667969 101.71899414 C-71.2507341 100.06176449 -72.91772317 98.41835127 -74.5859375 96.77539062 C-75.64664322 95.71695684 -76.70656669 94.65773842 -77.765625 93.59765625 C-78.50936371 92.86773216 -78.50936371 92.86773216 -79.26812744 92.12306213 C-82.68172371 88.66334122 -84.9479862 85.60935875 -85.046875 80.6484375 C-84.94890625 79.89820313 -84.8509375 79.14796875 -84.75 78.375 C-84.66234375 77.61960937 -84.5746875 76.86421875 -84.484375 76.0859375 C-84 74 -84 74 -82 71 C-81.34 71 -80.68 71 -80 71 C-79.6587207 70.17172699 -79.6587207 70.17172699 -79.31054688 69.32672119 C-77.61421561 66.31508539 -75.47442831 64.21989585 -73.03125 61.77246094 C-72.52698486 61.26469116 -72.02271973 60.75692139 -71.50317383 60.23376465 C-69.84043464 58.56224561 -68.17051377 56.8981215 -66.5 55.234375 C-65.34150393 54.07453163 -64.18330488 52.9143915 -63.02539062 51.75396729 C-60.60089564 49.32652647 -58.17282638 46.90273366 -55.7421875 44.48144531 C-52.62136558 41.37204303 -49.50964136 38.25371488 -46.4005127 35.13262558 C-44.01243075 32.73733217 -41.61962507 30.34680356 -39.2253418 27.95771027 C-38.07557186 26.80927748 -36.92729398 25.65934895 -35.78051758 24.50792694 C-34.18137281 22.90372591 -32.5759975 21.30603808 -30.96875 19.70996094 C-30.05544922 18.79825134 -29.14214844 17.88654175 -28.20117188 16.94720459 C-26 15 -26 15 -24 15 C-23.77183594 14.44699219 -23.54367187 13.89398438 -23.30859375 13.32421875 C-21.62457111 10.33319346 -19.49456758 8.23028231 -17.0625 5.8125 C-16.18722656 4.93207031 -15.31195313 4.05164063 -14.41015625 3.14453125 C-10.158751 -0.63832366 -5.44897881 -0.67294421 0 0 Z " fill="#8B5CF6" transform="translate(302,222)"/>
<path d="M0 0 C4.38449892 2.27656675 7.71159929 5.32472862 11 9 C11 9.66 11 10.32 11 11 C11.59329102 11.26731934 12.18658203 11.53463867 12.79785156 11.81005859 C15.02933245 13.01584993 16.4664799 14.2358095 18.234375 16.0390625 C18.80800781 16.61914062 19.38164062 17.19921875 19.97265625 17.796875 C20.55917969 18.40015625 21.14570313 19.0034375 21.75 19.625 C22.35199219 20.23601562 22.95398438 20.84703125 23.57421875 21.4765625 C25.05405305 22.97988624 26.52764676 24.48934856 28 26 C27.67 26.66 27.34 27.32 27 28 C22.24352332 26.41450777 22.24352332 26.41450777 20 25 C18.5625 21.8125 18.5625 21.8125 18 19 C16.8553125 18.9071875 16.8553125 18.9071875 15.6875 18.8125 C13 18 13 18 11.1875 15.625 C10 13 10 13 10 10 C8.68 10 7.36 10 6 10 C6 9.34 6 8.68 6 8 C5.01 8.33 4.02 8.66 3 9 C2.93941406 8.38640625 2.87882812 7.7728125 2.81640625 7.140625 C2.1788835 4.77820953 2.1788835 4.77820953 -0.28515625 3.734375 C-1.20167969 3.40953125 -2.11820312 3.0846875 -3.0625 2.75 C-3.98160156 2.41484375 -4.90070313 2.0796875 -5.84765625 1.734375 C-6.55792969 1.49203125 -7.26820313 1.2496875 -8 1 C-7.505 2.98 -7.505 2.98 -7 5 C-8.32 5.99 -9.64 6.98 -11 8 C-10.67 6.35 -10.34 4.7 -10 3 C-13.465 5.97 -13.465 5.97 -17 9 C-16.01 9.33 -15.02 9.66 -14 10 C-14.66 11.65 -15.32 13.3 -16 15 C-18.475 14.505 -18.475 14.505 -21 14 C-21.185625 14.66 -21.37125 15.32 -21.5625 16 C-24.99797396 23.16968478 -31.27777208 28.30791583 -37.27734375 33.3359375 C-37.84582031 33.88507813 -38.41429687 34.43421875 -39 35 C-39 35.66 -39 36.32 -39 37 C-40.546875 37.5878125 -40.546875 37.5878125 -42.125 38.1875 C-46.06489676 39.85653977 -48.83517421 42.1439377 -52 45 C-52.495 43.515 -52.495 43.515 -53 42 C-49.19776083 38.14844023 -45.38908788 34.30340607 -41.57421875 30.46435547 C-40.27651486 29.15657422 -38.98060901 27.84700631 -37.68652344 26.53564453 C-35.82953602 24.65448499 -33.96624438 22.77977878 -32.1015625 20.90625 C-31.52129303 20.31565796 -30.94102356 19.72506592 -30.34317017 19.11657715 C-28.93290372 17.70591649 -27.47082858 16.34739684 -26 15 C-25.34 15 -24.68 15 -24 15 C-23.77183594 14.44699219 -23.54367187 13.89398438 -23.30859375 13.32421875 C-21.62457111 10.33319346 -19.49456758 8.23028231 -17.0625 5.8125 C-16.18722656 4.93207031 -15.31195313 4.05164063 -14.41015625 3.14453125 C-10.158751 -0.63832366 -5.44897881 -0.67294421 0 0 Z M-19 15 C-18.01 15.495 -18.01 15.495 -17 16 C-17.33 16.66 -17.66 17.32 -18 18 C-18.33 17.01 -18.66 16.02 -19 15 Z " fill="#8B5CF6" transform="translate(302,222)"/>
<path d="M0 0 C1.04542969 0.00386719 2.09085938 0.00773438 3.16796875 0.01171875 C5.8125 0.3125 5.8125 0.3125 7.8125 2.3125 C6.678125 2.60125 5.54375 2.89 4.375 3.1875 C3.199375 3.55875 2.02375 3.93 0.8125 4.3125 C0.4825 4.9725 0.1525 5.6325 -0.1875 6.3125 C-2.52083333 6.3125 -4.85416667 6.3125 -7.1875 6.3125 C-8.56060707 7.60483607 -9.89784824 8.93687146 -11.1875 10.3125 C-10.5275 10.6425 -9.8675 10.9725 -9.1875 11.3125 C-9.5175 12.6325 -9.8475 13.9525 -10.1875 15.3125 C-12.4975 15.3125 -14.8075 15.3125 -17.1875 15.3125 C-17.1875 15.9725 -17.1875 16.6325 -17.1875 17.3125 C-18.321875 17.745625 -19.45625 18.17875 -20.625 18.625 C-21.800625 19.181875 -22.97625 19.73875 -24.1875 20.3125 C-24.6825 21.7975 -24.6825 21.7975 -25.1875 23.3125 C-25.8475 23.3125 -26.5075 23.3125 -27.1875 23.3125 C-27.1875 23.9725 -27.1875 24.6325 -27.1875 25.3125 C-31.65808824 29.3125 -31.65808824 29.3125 -34.1875 29.3125 C-34.4659375 29.89128906 -34.744375 30.47007812 -35.03125 31.06640625 C-36.14150874 33.22315887 -37.36696873 35.21686496 -38.6875 37.25 C-40.56105018 40.19493517 -41.90724588 43.06262416 -43.1875 46.3125 C-44.1775 46.8075 -44.1775 46.8075 -45.1875 47.3125 C-46.1775 46.6525 -47.1675 45.9925 -48.1875 45.3125 C-48.8475 45.3125 -49.5075 45.3125 -50.1875 45.3125 C-50.1875 45.9725 -50.1875 46.6325 -50.1875 47.3125 C-51.1775 47.3125 -52.1675 47.3125 -53.1875 47.3125 C-53.249375 47.910625 -53.31125 48.50875 -53.375 49.125 C-54.5111757 52.18393458 -56.36080142 52.86291099 -59.1875 54.3125 C-59.5175 53.6525 -59.8475 52.9925 -60.1875 52.3125 C-59.5275 52.3125 -58.8675 52.3125 -58.1875 52.3125 C-58.1875 51.6525 -58.1875 50.9925 -58.1875 50.3125 C-57.5275 50.3125 -56.8675 50.3125 -56.1875 50.3125 C-56.1875 49.6525 -56.1875 48.9925 -56.1875 48.3125 C-55.5275 48.3125 -54.8675 48.3125 -54.1875 48.3125 C-54.1875 47.6525 -54.1875 46.9925 -54.1875 46.3125 C-53.5275 46.3125 -52.8675 46.3125 -52.1875 46.3125 C-51.8575 45.3225 -51.5275 44.3325 -51.1875 43.3125 C-50.5275 43.3125 -49.8675 43.3125 -49.1875 43.3125 C-49.1875 42.6525 -49.1875 41.9925 -49.1875 41.3125 C-48.5275 41.3125 -47.8675 41.3125 -47.1875 41.3125 C-47.1875 40.6525 -47.1875 39.9925 -47.1875 39.3125 C-46.5275 39.3125 -45.8675 39.3125 -45.1875 39.3125 C-45.1875 38.6525 -45.1875 37.9925 -45.1875 37.3125 C-44.5275 37.3125 -43.8675 37.3125 -43.1875 37.3125 C-43.1875 36.6525 -43.1875 35.9925 -43.1875 35.3125 C-42.5275 35.3125 -41.8675 35.3125 -41.1875 35.3125 C-41.1875 34.6525 -41.1875 33.9925 -41.1875 33.3125 C-40.5275 33.3125 -39.8675 33.3125 -39.1875 33.3125 C-39.1875 32.6525 -39.1875 31.9925 -39.1875 31.3125 C-38.5275 31.3125 -37.8675 31.3125 -37.1875 31.3125 C-37.1875 30.6525 -37.1875 29.9925 -37.1875 29.3125 C-35.8125 27.6875 -35.8125 27.6875 -34.1875 26.3125 C-33.5275 26.3125 -32.8675 26.3125 -32.1875 26.3125 C-32.1875 25.6525 -32.1875 24.9925 -32.1875 24.3125 C-31.5275 24.3125 -30.8675 24.3125 -30.1875 24.3125 C-30.1875 23.6525 -30.1875 22.9925 -30.1875 22.3125 C-28.20489574 20.62517723 -26.2042658 18.95883943 -24.1875 17.3125 C-23.8575 16.6525 -23.5275 15.9925 -23.1875 15.3125 C-22.5275 15.3125 -21.8675 15.3125 -21.1875 15.3125 C-21.1875 14.6525 -21.1875 13.9925 -21.1875 13.3125 C-20.5275 13.3125 -19.8675 13.3125 -19.1875 13.3125 C-19.1875 12.6525 -19.1875 11.9925 -19.1875 11.3125 C-18.5275 11.3125 -17.8675 11.3125 -17.1875 11.3125 C-17.1875 10.6525 -17.1875 9.9925 -17.1875 9.3125 C-16.5275 9.3125 -15.8675 9.3125 -15.1875 9.3125 C-15.1875 8.6525 -15.1875 7.9925 -15.1875 7.3125 C-14.5275 7.3125 -13.8675 7.3125 -13.1875 7.3125 C-13.1875 6.6525 -13.1875 5.9925 -13.1875 5.3125 C-12.5275 5.3125 -11.8675 5.3125 -11.1875 5.3125 C-11.1875 4.6525 -11.1875 3.9925 -11.1875 3.3125 C-7.44207268 0.46708294 -4.64794051 -0.07505991 0 0 Z " fill="#8B5CF6" transform="translate(248.1875,152.6875)"/>
<path d="M0 0 C0.66 0.33 1.32 0.66 2 1 C-1.90053581 7.15239154 -5.7831312 12.2069754 -11.3125 17.0078125 C-12.1375 17.72710937 -12.9625 18.44640625 -13.8125 19.1875 C-14.60269531 19.86167969 -15.39289063 20.53585938 -16.20703125 21.23046875 C-17.09455078 22.10638672 -17.09455078 22.10638672 -18 23 C-18 23.66 -18 24.32 -18 25 C-19.03125 25.391875 -20.0625 25.78375 -21.125 26.1875 C-25.06489676 27.85653977 -27.83517421 30.1439377 -31 33 C-31.33 32.01 -31.66 31.02 -32 30 C-28.25281765 26.2032467 -24.49901256 22.41321173 -20.73901367 18.62915039 C-19.46179629 17.34189784 -18.18638256 16.05285301 -16.9128418 14.76196289 C-15.07816368 12.90292747 -13.23701882 11.05051059 -11.39453125 9.19921875 C-10.82974564 8.62411057 -10.26496002 8.04900238 -9.68305969 7.45646667 C-6.69001364 4.46258362 -3.87946943 1.83056478 0 0 Z " fill="#8B5CF6" transform="translate(281,234)"/>
<path d="M0 0 C1.65 0 3.3 0 5 0 C3.65427113 2.99943905 2.16462899 5.08076179 -0.16455078 7.39160156 C-0.80506378 8.0319635 -1.44557678 8.67232544 -2.10549927 9.33209229 C-2.79513763 10.01140808 -3.484776 10.69072388 -4.1953125 11.390625 C-4.90275604 12.09523865 -5.61019958 12.79985229 -6.33908081 13.52581787 C-8.59639862 15.7719539 -10.86057633 18.01103009 -13.125 20.25 C-14.65800953 21.77297717 -16.19056715 23.29640939 -17.72265625 24.8203125 C-21.47654573 28.55216815 -25.23608914 32.27825351 -29 36 C-29.66 35.67 -30.32 35.34 -31 35 C-31 34.01 -31 33.02 -31 32 C-29.68 31.34 -28.36 30.68 -27 30 C-27 29.01 -27 28.02 -27 27 C-26.443125 26.773125 -25.88625 26.54625 -25.3125 26.3125 C-22.77784543 25.01533035 -22.77784543 25.01533035 -20.4375 22.375 C-18 20 -18 20 -15 20 C-15.33 18.35 -15.66 16.7 -16 15 C-13 13 -13 13 -10 13 C-10 12.34 -10 11.68 -10 11 C-9.01 11 -8.02 11 -7 11 C-6.731875 10.401875 -6.46375 9.80375 -6.1875 9.1875 C-5.00082594 7.00152146 -3.90400887 5.58667406 -2 4 C-1.34 4 -0.68 4 0 4 C0 2.68 0 1.36 0 0 Z " fill="#8B5CF6" transform="translate(292,300)"/>
<path d="M0 0 C0.66 0 1.32 0 2 0 C4.82084211 4.40051369 5.57244331 7.67244239 4.734375 12.734375 C3.30504672 17.14400481 0.26015372 19.81566381 -3 23 C-4.26848979 24.27709555 -5.53525737 25.55590285 -6.80078125 26.8359375 C-10.51231119 30.57922762 -14.24913657 34.296158 -18 38 C-18 35 -18 35 -15.33984375 32.29296875 C-13.63860897 30.72028064 -11.92071591 29.17280227 -10.17773438 27.64648438 C-8.58339172 26.1578023 -7.20653052 24.81912025 -6 23 C-5.96774326 19.69038174 -5.96774326 19.69038174 -7 17 C-6.38125 16.896875 -5.7625 16.79375 -5.125 16.6875 C-2.63473516 16.12474627 -2.63473516 16.12474627 -1 13 C-0.29187186 10.67891331 0.38024152 8.34622853 1 6 C-0.32 6 -1.64 6 -3 6 C-2.67 4.68 -2.34 3.36 -2 2 C-1.34 2 -0.68 2 0 2 C0 1.34 0 0.68 0 0 Z " fill="#8B5CF6" transform="translate(280,179)"/>
<path d="M0 0 C1.04542969 0.00386719 2.09085938 0.00773438 3.16796875 0.01171875 C5.8125 0.3125 5.8125 0.3125 7.8125 2.3125 C6.678125 2.60125 5.54375 2.89 4.375 3.1875 C3.199375 3.55875 2.02375 3.93 0.8125 4.3125 C0.4825 4.9725 0.1525 5.6325 -0.1875 6.3125 C-2.52083333 6.3125 -4.85416667 6.3125 -7.1875 6.3125 C-8.56060707 7.60483607 -9.89784824 8.93687146 -11.1875 10.3125 C-10.5275 10.6425 -9.8675 10.9725 -9.1875 11.3125 C-9.5175 12.6325 -9.8475 13.9525 -10.1875 15.3125 C-12.5306213 15.05688677 -14.86593403 14.71979228 -17.1875 14.3125 C-17.5175 13.6525 -17.8475 12.9925 -18.1875 12.3125 C-17.8575 11.3225 -17.5275 10.3325 -17.1875 9.3125 C-16.5275 9.3125 -15.8675 9.3125 -15.1875 9.3125 C-15.1875 8.6525 -15.1875 7.9925 -15.1875 7.3125 C-14.5275 7.3125 -13.8675 7.3125 -13.1875 7.3125 C-13.1875 6.6525 -13.1875 5.9925 -13.1875 5.3125 C-12.5275 5.3125 -11.8675 5.3125 -11.1875 5.3125 C-11.1875 4.6525 -11.1875 3.9925 -11.1875 3.3125 C-7.44207268 0.46708294 -4.64794051 -0.07505991 0 0 Z " fill="#8B5CF6" transform="translate(248.1875,152.6875)"/>
<path d="M0 0 C0.66 0.33 1.32 0.66 2 1 C1.67 1.99 1.34 2.98 1 4 C0.34 4 -0.32 4 -1 4 C-1.33 5.65 -1.66 7.3 -2 9 C-2.66 9 -3.32 9 -4 9 C-4.66 9.66 -5.32 10.32 -6 11 C-6.33 11 -6.66 11 -7 11 C-7.16834933 12.77067416 -7.33461909 14.54154612 -7.5 16.3125 C-7.5928125 17.29863281 -7.685625 18.28476563 -7.78125 19.30078125 C-8.04038857 22.04702139 -8.04038857 22.04702139 -8 25 C-7.34 25.33 -6.68 25.66 -6 26 C-5.86722656 26.60328125 -5.73445312 27.2065625 -5.59765625 27.828125 C-4.83011569 30.61735736 -3.52427167 31.77705224 -1.4375 33.75 C-0.79683594 34.36359375 -0.15617188 34.9771875 0.50390625 35.609375 C1.24447266 36.29773438 1.24447266 36.29773438 2 37 C1.67 37.66 1.34 38.32 1 39 C-0.63115895 37.42301238 -2.25471333 35.83815634 -3.875 34.25 C-4.77992188 33.36828125 -5.68484375 32.4865625 -6.6171875 31.578125 C-11.2842449 26.52852192 -11.43929779 22.65280526 -11.31640625 15.91015625 C-10.64925675 9.77402812 -6.42703572 5.96103196 -2 2 C-1.34 2 -0.68 2 0 2 C0 1.34 0 0.68 0 0 Z " fill="#8B5CF6" transform="translate(175,218)"/>
<path d="M0 0 C0.33 0.99 0.66 1.98 1 3 C0.01 3.99 -0.98 4.98 -2 6 C-2.66 5.67 -3.32 5.34 -4 5 C-4.99 5.33 -5.98 5.66 -7 6 C-6.6875 4.125 -6.6875 4.125 -6 2 C-3 0 -3 0 0 0 Z M-9 6 C-8.34 6 -7.68 6 -7 6 C-6.75 8.3125 -6.75 8.3125 -7 11 C-9 12.8125 -9 12.8125 -11 14 C-11.33 13.67 -11.66 13.34 -12 13 C-13.6627026 15.67478244 -14.99983813 17.9995144 -16 21 C-18 20 -18 20 -20 17 C-17.32459253 13.43279004 -14.64340588 10.58873576 -11 8 C-10.34 8 -9.68 8 -9 8 C-9 7.34 -9 6.68 -9 6 Z " fill="#8B5CF6" transform="translate(230,170)"/>
<path d="M0 0 C3.76690636 1.73857216 6.21232537 3.90258375 9 7 C9 7.66 9 8.32 9 9 C9.59329102 9.26731934 10.18658203 9.53463867 10.79785156 9.81005859 C13.02933245 11.01584993 14.4664799 12.2358095 16.234375 14.0390625 C16.80800781 14.61914062 17.38164062 15.19921875 17.97265625 15.796875 C18.55917969 16.40015625 19.14570313 17.0034375 19.75 17.625 C20.35199219 18.23601562 20.95398438 18.84703125 21.57421875 19.4765625 C23.05405305 20.97988624 24.52764676 22.48934856 26 24 C25.67 24.66 25.34 25.32 25 26 C20.24352332 24.41450777 20.24352332 24.41450777 18 23 C16.5625 19.8125 16.5625 19.8125 16 17 C15.22527344 16.92007813 14.45054687 16.84015625 13.65234375 16.7578125 C11 16 11 16 9.62890625 14.1796875 C9.27699219 13.41914063 8.92507813 12.65859375 8.5625 11.875 C6.2394875 7.25116938 3.48755365 3.81197724 0 0 Z " fill="#8B5CF6" transform="translate(304,224)"/>
<path d="M0 0 C0.33 0.66 0.66 1.32 1 2 C0.54625 2.5775 0.0925 3.155 -0.375 3.75 C-2.02159096 5.86717287 -2.02159096 5.86717287 -2.87109375 7.9609375 C-4.17368996 10.31372373 -5.51762133 11.31691268 -7.6875 12.875 C-9.570597 14.33955146 -9.570597 14.33955146 -11 16 C-11.34927662 19.2431282 -11.34927662 19.2431282 -10 22 C-9.01 22.66 -8.02 23.32 -7 24 C-7.66 25.32 -8.32 26.64 -9 28 C-12.76109262 23.25775279 -13.47516534 19.32055205 -13.40625 13.359375 C-13 11 -13 11 -10.4375 8.8125 C-9.303125 8.214375 -8.16875 7.61625 -7 7 C-4.55681684 4.77138782 -2.27647645 2.39770892 0 0 Z " fill="#8B5CF6" transform="translate(232,283)"/>
<path d="M0 0 C0.66 0.33 1.32 0.66 2 1 C2.94496268 3.83488805 3.2261999 5.85558617 3.3125 8.8125 C3.34988281 9.64394531 3.38726562 10.47539062 3.42578125 11.33203125 C2.44604174 17.47113293 -2.45395076 21.72553512 -6.75 25.875 C-7.25660156 26.37257813 -7.76320313 26.87015625 -8.28515625 27.3828125 C-9.51885307 28.59323202 -10.75877784 29.79729853 -12 31 C-12.66 29.68 -13.32 28.36 -14 27 C-12.68 27 -11.36 27 -10 27 C-9.34 25.02 -8.68 23.04 -8 21 C-7.01 21 -6.02 21 -5 21 C-4.34 19.02 -3.68 17.04 -3 15 C-1.68 15 -0.36 15 1 15 C0.67 10.05 0.34 5.1 0 0 Z " fill="#8B5CF6" transform="translate(330,250)"/>
<path d="M0 0 C0.66 0.33 1.32 0.66 2 1 C1.360625 1.7425 0.72125 2.485 0.0625 3.25 C-1.83476938 5.77969251 -2.3649847 7.03659527 -3 10 C-3.99 10.495 -3.99 10.495 -5 11 C-5.99 10.34 -6.98 9.68 -8 9 C-8.66 9 -9.32 9 -10 9 C-10 9.66 -10 10.32 -10 11 C-10.99 11 -11.98 11 -13 11 C-13.061875 11.598125 -13.12375 12.19625 -13.1875 12.8125 C-14.3236757 15.87143458 -16.17330142 16.55041099 -19 18 C-19.33 17.34 -19.66 16.68 -20 16 C-19.34 16 -18.68 16 -18 16 C-18 15.34 -18 14.68 -18 14 C-17.34 14 -16.68 14 -16 14 C-16 13.34 -16 12.68 -16 12 C-15.34 12 -14.68 12 -14 12 C-14 11.34 -14 10.68 -14 10 C-13.34 10 -12.68 10 -12 10 C-11.67 9.01 -11.34 8.02 -11 7 C-9.27373015 6.25086403 -7.54413614 5.50704238 -5.7890625 4.828125 C-3.33233425 3.69094948 -1.75141232 2.03163829 0 0 Z " fill="#8B5CF6" transform="translate(208,189)"/>
<path d="M0 0 C1.65 0 3.3 0 5 0 C4.0919838 1.13199353 3.17316174 2.25532363 2.25 3.375 C1.73953125 4.00148438 1.2290625 4.62796875 0.703125 5.2734375 C-1.08743286 7.08863606 -2.72396411 7.90501635 -5 9 C-5.6837045 10.32467746 -6.34964186 11.65863633 -7 13 C-9.125 14.75 -9.125 14.75 -11 16 C-11.33 13.69 -11.66 11.38 -12 9 C-9.33496595 7.22331063 -7.98315427 6.67361548 -5 6 C-2.83333333 5.16666667 -2.83333333 5.16666667 -2 3 C-1.34 3 -0.68 3 0 3 C0 2.01 0 1.02 0 0 Z " fill="#8B5CF6" transform="translate(311,282)"/>
<path d="M0 0 C1.65 0 3.3 0 5 0 C3.33830526 4.30577504 0.16919694 7.09011855 -3.0625 10.25 C-3.61744141 10.80429687 -4.17238281 11.35859375 -4.74414062 11.9296875 C-8.85956743 16 -8.85956743 16 -10 16 C-10 14.35 -10 12.7 -10 11 C-9.01 11 -8.02 11 -7 11 C-6.731875 10.401875 -6.46375 9.80375 -6.1875 9.1875 C-5.00082594 7.00152146 -3.90400887 5.58667406 -2 4 C-1.34 4 -0.68 4 0 4 C0 2.68 0 1.36 0 0 Z " fill="#8B5CF6" transform="translate(292,300)"/>
<path d="M0 0 C3.81936528 1.55603771 6.26044438 3.95604931 9 7 C9 7.66 9 8.32 9 9 C9.66 9 10.32 9 11 9 C11 9.66 11 10.32 11 11 C11.66 11 12.32 11 13 11 C12.67 11.66 12.34 12.32 12 13 C10.35 13 8.7 13 7 13 C6.67 11.35 6.34 9.7 6 8 C4.35 8.33 2.7 8.66 1 9 C1.020625 7.88625 1.04125 6.7725 1.0625 5.625 C1.26380718 2.16784079 1.26380718 2.16784079 0 0 Z " fill="#8B5CF6" transform="translate(256,155)"/>
<path d="M0 0 C0.66 0.33 1.32 0.66 2 1 C-0.31 3.31 -2.62 5.62 -5 8 C-4.01 8.33 -3.02 8.66 -2 9 C-2.66 10.65 -3.32 12.3 -4 14 C-4.763125 13.62875 -5.52625 13.2575 -6.3125 12.875 C-7.199375 12.58625 -8.08625 12.2975 -9 12 C-9.99 12.66 -10.98 13.32 -12 14 C-10.41332422 10.09714233 -7.86649519 7.66479018 -4.875 4.75 C-3.96492188 3.85796875 -3.05484375 2.9659375 -2.1171875 2.046875 C-1.41851562 1.37140625 -0.71984375 0.6959375 0 0 Z M-7 14 C-6.01 14.495 -6.01 14.495 -5 15 C-5.33 15.66 -5.66 16.32 -6 17 C-6.33 16.01 -6.66 15.02 -7 14 Z " fill="#8B5CF6" transform="translate(290,223)"/>
<path d="M0 0 C0 3 0 3 -1.8359375 5.17651367 C-2.67382812 5.99869385 -3.51171875 6.82087402 -4.375 7.66796875 C-5.27734375 8.56064453 -6.1796875 9.45332031 -7.109375 10.37304688 C-8.0727573 11.31136157 -9.03630108 12.2495105 -10 13.1875 C-10.96422346 14.13667769 -11.92777392 15.08653956 -12.890625 16.03710938 C-15.25386746 18.36490319 -17.62381482 20.68543133 -20 23 C-20 20 -20 20 -18.63891602 18.33007812 C-18.01686279 17.73646484 -17.39480957 17.14285156 -16.75390625 16.53125 C-15.74553711 15.55091797 -15.74553711 15.55091797 -14.71679688 14.55078125 C-14.00587891 13.87402344 -13.29496094 13.19726562 -12.5625 12.5 C-11.16348211 11.1609218 -9.7687419 9.81735607 -8.37890625 8.46875 C-7.44413452 7.57833008 -7.44413452 7.57833008 -6.49047852 6.66992188 C-4.76701828 4.96070774 -4.76701828 4.96070774 -4 2 C-1.9375 0.8125 -1.9375 0.8125 0 0 Z " fill="#8B5CF6" transform="translate(282,194)"/>
<path d="M0 0 C1.32 0.66 2.64 1.32 4 2 C3.51789063 2.47050781 3.03578125 2.94101563 2.5390625 3.42578125 C1.90742188 4.04839844 1.27578125 4.67101562 0.625 5.3125 C-0.00148437 5.92738281 -0.62796875 6.54226562 -1.2734375 7.17578125 C-3.18086607 9.08812528 -3.18086607 9.08812528 -5 12 C-5.66 11.67 -6.32 11.34 -7 11 C-5.72278474 6.00724943 -3.82669043 3.42388092 0 0 Z " fill="#8B5CF6" transform="translate(223,248)"/>
<path d="M0 0 C1.65 0 3.3 0 5 0 C5.33 1.32 5.66 2.64 6 4 C6.928125 4 7.85625 4 8.8125 4 C10.875 4 12.9375 4 15 4 C12.375 8.875 12.375 8.875 9 10 C7.49702124 8.52386015 5.99768715 7.04400843 4.5 5.5625 C3.6646875 4.73878906 2.829375 3.91507812 1.96875 3.06640625 C0 1 0 1 0 0 Z " fill="#8B5CF6" transform="translate(183,261)"/>
<path d="M0 0 C0.99 0.33 1.98 0.66 3 1 C0.75496559 5.66276377 -1.86951847 9.88415799 -5 14 C-4.93983797 12.2282281 -4.85100672 10.45741321 -4.75 8.6875 C-4.70359375 7.70136719 -4.6571875 6.71523437 -4.609375 5.69921875 C-4 3 -4 3 -2.140625 1.08203125 C-1.43421875 0.72496094 -0.7278125 0.36789063 0 0 Z " fill="#8B5CF6" transform="translate(171,226)"/>
<path d="M0 0 C-0.50603992 2.16874252 -0.99983813 3.99967627 -2 6 C-2.99 6 -3.98 6 -5 6 C-5.144375 6.61875 -5.28875 7.2375 -5.4375 7.875 C-6 10 -6 10 -7 12 C-7.66 12 -8.32 12 -9 12 C-9.33 11.01 -9.66 10.02 -10 9 C-9.34 8.67 -8.68 8.34 -8 8 C-6.26461808 5.60775041 -6.26461808 5.60775041 -5 3 C-5.33 2.34 -5.66 1.68 -6 1 C-4 0 -4 0 0 0 Z " fill="#8B5CF6" transform="translate(327,265)"/>
<path d="M0 0 C1.60294922 0.04060547 1.60294922 0.04060547 3.23828125 0.08203125 C4.04652344 0.11683594 4.85476562 0.15164062 5.6875 0.1875 C5.6875 0.5175 5.6875 0.8475 5.6875 1.1875 C4.93984375 1.21328125 4.1921875 1.2390625 3.421875 1.265625 C-2.66458947 1.42844761 -2.66458947 1.42844761 -7.8125 4.25 C-8.3075 4.889375 -8.8025 5.52875 -9.3125 6.1875 C-10.3025 6.1875 -11.2925 6.1875 -12.3125 6.1875 C-12.43625 6.80625 -12.56 7.425 -12.6875 8.0625 C-13.3125 10.1875 -13.3125 10.1875 -15.3125 12.1875 C-15.9725 11.8575 -16.6325 11.5275 -17.3125 11.1875 C-17.3125 10.5275 -17.3125 9.8675 -17.3125 9.1875 C-16.6525 9.1875 -15.9925 9.1875 -15.3125 9.1875 C-15.3125 8.5275 -15.3125 7.8675 -15.3125 7.1875 C-14.6525 7.1875 -13.9925 7.1875 -13.3125 7.1875 C-13.3125 6.5275 -13.3125 5.8675 -13.3125 5.1875 C-12.6525 5.1875 -11.9925 5.1875 -11.3125 5.1875 C-11.3125 4.5275 -11.3125 3.8675 -11.3125 3.1875 C-7.50830714 0.27259898 -4.72343323 -0.15571758 0 0 Z " fill="#8B5CF6" transform="translate(248.3125,152.8125)"/>
<path d="M0 0 C1.32 0.33 2.64 0.66 4 1 C2.35 2.65 0.7 4.3 -1 6 C-1.66 5.67 -2.32 5.34 -3 5 C-3.33 6.32 -3.66 7.64 -4 9 C-4.99 8.67 -5.98 8.34 -7 8 C-6.6875 5.625 -6.6875 5.625 -6 3 C-5.01 2.34 -4.02 1.68 -3 1 C-2.34 1.33 -1.68 1.66 -1 2 C-0.67 1.34 -0.34 0.68 0 0 Z " fill="#8B5CF6" transform="translate(209,263)"/>
<path d="M0 0 C0.66 0.33 1.32 0.66 2 1 C1.236875 1.721875 0.47375 2.44375 -0.3125 3.1875 C-3.03207252 5.81409241 -3.03207252 5.81409241 -4.5625 8.6875 C-6.2078793 11.33441453 -7.20949882 11.76889654 -10 13 C-11.68889872 14.3050581 -13.3603279 15.63360658 -15 17 C-13.67879172 14.06769807 -12.25361803 12.01335101 -9.9609375 9.765625 C-9.38085938 9.19199219 -8.80078125 8.61835938 -8.203125 8.02734375 C-7.59984375 7.44082031 -6.9965625 6.85429687 -6.375 6.25 C-5.76398438 5.64800781 -5.15296875 5.04601562 -4.5234375 4.42578125 C-3.02011376 2.94594695 -1.51065144 1.47235324 0 0 Z " fill="#8B5CF6" transform="translate(265,250)"/>
<path d="M0 0 C0.66 1.32 1.32 2.64 2 4 C-0.31 6.31 -2.62 8.62 -5 11 C-5.66 10.67 -6.32 10.34 -7 10 C-7 9.01 -7 8.02 -7 7 C-5.68 6.34 -4.36 5.68 -3 5 C-3 4.01 -3 3.02 -3 2 C-2.01 1.34 -1.02 0.68 0 0 Z " fill="#8B5CF6" transform="translate(268,325)"/>
<path d="M0 0 C0.99 0.33 1.98 0.66 3 1 C0.375 4.875 0.375 4.875 -3 6 C-5.33299825 6.03954234 -7.66708189 6.04401732 -10 6 C-10 5.34 -10 4.68 -10 4 C-10.66 3.67 -11.32 3.34 -12 3 C-8.37 3 -4.74 3 -1 3 C-0.67 2.01 -0.34 1.02 0 0 Z " fill="#8B5CF6" transform="translate(206,268)"/>
<path d="M0 0 C0.7412036 2.30596675 1.10276212 3.63462359 0.4375 6 C-0.20191757 8.0600719 -0.20191757 8.0600719 0.8125 10.1875 C1.88121987 12.15022193 1.88121987 12.15022193 4 13 C3.34 14.32 2.68 15.64 2 17 C-2.00680179 11.94794557 -2.29887398 8.27635367 -2 2 C-1.34 1.34 -0.68 0.68 0 0 Z " fill="#8B5CF6" transform="translate(221,294)"/>
<path d="M0 0 C2.0625 0.4375 2.0625 0.4375 4 1 C4 2.66666667 4 4.33333333 4 6 C1.36 6.33 -1.28 6.66 -4 7 C-4 6.34 -4 5.68 -4 5 C-3.34 5 -2.68 5 -2 5 C-1.7834375 4.0409375 -1.7834375 4.0409375 -1.5625 3.0625 C-1 1 -1 1 0 0 Z " fill="#8B5CF6" transform="translate(178,217)"/>
<path d="M0 0 C0.66 0 1.32 0 2 0 C1.6875 1.9375 1.6875 1.9375 1 4 C0.01 4.33 -0.98 4.66 -2 5 C-2.309375 5.639375 -2.61875 6.27875 -2.9375 6.9375 C-4.2342338 9.45468915 -5.4221737 9.96886948 -8 11 C-8.33 10.34 -8.66 9.68 -9 9 C-8.34 9 -7.68 9 -7 9 C-7 8.34 -7 7.68 -7 7 C-5.625 5.375 -5.625 5.375 -4 4 C-3.34 4 -2.68 4 -2 4 C-2 3.34 -2 2.68 -2 2 C-1.34 2 -0.68 2 0 2 C0 1.34 0 0.68 0 0 Z " fill="#8B5CF6" transform="translate(186,207)"/>
<path d="M0 0 C2.86724686 0.57344937 3.8614515 0.8614515 6 3 C6.66 2.67 7.32 2.34 8 2 C8.66 4.64 9.32 7.28 10 10 C8.8944811 9.06409496 7.79064547 8.12620142 6.6875 7.1875 C6.07261719 6.66542969 5.45773438 6.14335937 4.82421875 5.60546875 C3.14222653 4.12517153 1.5270411 2.63980721 0 1 C0 0.67 0 0.34 0 0 Z " fill="#8B5CF6" transform="translate(230,318)"/>
<path d="M0 0 C0.66 0.33 1.32 0.66 2 1 C1.0980639 2.48819457 0.17785871 3.96532813 -0.75 5.4375 C-1.26046875 6.26121094 -1.7709375 7.08492187 -2.296875 7.93359375 C-4.1792182 10.21744593 -5.1157546 10.65514457 -8 11 C-6.52670958 5.99081256 -3.72484762 3.48192278 0 0 Z " fill="#8B5CF6" transform="translate(281,234)"/>
<path d="M0 0 C4.16138263 -0.08159574 7.9472484 0.01751476 12 1 C10 3 10 3 7.6171875 3.1953125 C6.71226562 3.17210937 5.80734375 3.14890625 4.875 3.125 C3.50988281 3.09792969 3.50988281 3.09792969 2.1171875 3.0703125 C1.41851562 3.04710937 0.71984375 3.02390625 0 3 C0 2.01 0 1.02 0 0 Z " fill="#8B5CF6" transform="translate(249,335)"/>
<path d="M0 0 C0.66 0.66 1.32 1.32 2 2 C-0.23315484 5.40849949 -2.49707804 6.98581987 -6 9 C-7.75149165 10.58245275 -7.75149165 10.58245275 -9 12 C-9.66 11.67 -10.32 11.34 -11 11 C-7.37 7.37 -3.74 3.74 0 0 Z " fill="#8B5CF6" transform="translate(246,269)"/>
<path d="M0 0 C0.66 0.33 1.32 0.66 2 1 C1.67 1.99 1.34 2.98 1 4 C0.01 4 -0.98 4 -2 4 C-2.061875 4.598125 -2.12375 5.19625 -2.1875 5.8125 C-3.3236757 8.87143458 -5.17330142 9.55041099 -8 11 C-8.33 10.34 -8.66 9.68 -9 9 C-8.34 9 -7.68 9 -7 9 C-7 8.34 -7 7.68 -7 7 C-6.34 7 -5.68 7 -5 7 C-5 6.34 -5 5.68 -5 5 C-4.34 5 -3.68 5 -3 5 C-3 4.34 -3 3.68 -3 3 C-2.34 3 -1.68 3 -1 3 C-0.67 2.01 -0.34 1.02 0 0 Z " fill="#8B5CF6" transform="translate(197,196)"/>
<path d="M0 0 C-2.33214148 1.20628008 -4.49642139 2.1654738 -7 3 C-7.33 3.66 -7.66 4.32 -8 5 C-9.65 5 -11.3 5 -13 5 C-12.67 3.68 -12.34 2.36 -12 1 C-7.93631321 0.22596442 -4.13574827 -0.0984702 0 0 Z " fill="#8B5CF6" transform="translate(256,154)"/>
<path d="M0 0 C-1.49097658 3.7952131 -3.75700849 5.61042731 -7 8 C-7.25 5.6875 -7.25 5.6875 -7 3 C-4.51960083 0.51960083 -3.55547616 0 0 0 Z " fill="#8B5CF6" transform="translate(277,320)"/>
<path d="M0 0 C0.33 0.66 0.66 1.32 1 2 C0.34 2 -0.32 2 -1 2 C-1 2.66 -1 3.32 -1 4 C-5.47058824 8 -5.47058824 8 -8 8 C-8 7.01 -8 6.02 -8 5 C-7.34 5 -6.68 5 -6 5 C-6 4.34 -6 3.68 -6 3 C-5.34 3 -4.68 3 -4 3 C-4 2.34 -4 1.68 -4 1 C-2.68 0.67 -1.36 0.34 0 0 Z " fill="#8B5CF6" transform="translate(222,174)"/>
<path d="M0 0 C1.32 0.33 2.64 0.66 4 1 C4.5534764 3.07553648 5 4.84365964 5 7 C3.68 6.67 2.36 6.34 1 6 C0.67 4.02 0.34 2.04 0 0 Z " fill="#8B5CF6" transform="translate(243,328)"/>
<path d="M0 0 C1.65 0 3.3 0 5 0 C4.0919838 1.13199353 3.17316174 2.25532363 2.25 3.375 C1.73953125 4.00148438 1.2290625 4.62796875 0.703125 5.2734375 C-1.08199481 7.08312318 -2.67949644 8.00117455 -5 9 C-4 7 -3 5 -2 3 C-1.34 3 -0.68 3 0 3 C0 2.01 0 1.02 0 0 Z " fill="#8B5CF6" transform="translate(311,282)"/>
<path d="M0 0 C2.91271644 1.34680915 5.29328277 2.87448745 7.75 4.9375 C8.67039063 5.69353516 8.67039063 5.69353516 9.609375 6.46484375 C11 8 11 8 11 11 C9 11 9 11 7.34375 9.35546875 C6.7353125 8.64003906 6.126875 7.92460937 5.5 7.1875 C4.8915625 6.47980469 4.283125 5.77210938 3.65625 5.04296875 C2 3 2 3 0 0 Z " fill="#8B5CF6" transform="translate(168,246)"/>
<path d="M0 0 C1.23556641 0.01740234 1.23556641 0.01740234 2.49609375 0.03515625 C3.32238281 0.04417969 4.14867187 0.05320313 5 0.0625 C5.63808594 0.07410156 6.27617187 0.08570313 6.93359375 0.09765625 C6.93359375 0.42765625 6.93359375 0.75765625 6.93359375 1.09765625 C4.29359375 1.09765625 1.65359375 1.09765625 -1.06640625 1.09765625 C-0.73640625 2.41765625 -0.40640625 3.73765625 -0.06640625 5.09765625 C-1.38640625 6.08765625 -2.70640625 7.07765625 -4.06640625 8.09765625 C-3.05416559 0.14433675 -3.05416559 0.14433675 0 0 Z " fill="#8B5CF6" transform="translate(295.06640625,221.90234375)"/>
<path d="M0 0 C1.32 0.33 2.64 0.66 4 1 C4.33 2.32 4.66 3.64 5 5 C3.1875 5.625 3.1875 5.625 1 6 C0.01 5.34 -0.98 4.68 -2 4 C-1.34 2.68 -0.68 1.36 0 0 Z " fill="#8B5CF6" transform="translate(234,281)"/>
<path d="M0 0 C0.66 0.33 1.32 0.66 2 1 C-0.31 3.31 -2.62 5.62 -5 8 C-5.33 7.34 -5.66 6.68 -6 6 C-6.99 5.67 -7.98 5.34 -9 5 C-8.01 5 -7.02 5 -6 5 C-6 4.34 -6 3.68 -6 3 C-5.38125 2.87625 -4.7625 2.7525 -4.125 2.625 C-1.80879168 2.12802644 -1.80879168 2.12802644 0 0 Z " fill="#8B5CF6" transform="translate(245,231)"/>
<path d="M0 0 C0.66 0.66 1.32 1.32 2 2 C-1.465 4.97 -1.465 4.97 -5 8 C-4.64950425 4.75791433 -4.43778819 3.38472296 -1.9375 1.1875 C-1.298125 0.795625 -0.65875 0.40375 0 0 Z " fill="#8B5CF6" transform="translate(272,201)"/>
<path d="M0 0 C0.66 0 1.32 0 2 0 C2 0.66 2 1.32 2 2 C2.66 2.33 3.32 2.66 4 3 C3.34 3 2.68 3 2 3 C1.67 4.32 1.34 5.64 1 7 C-0.32 6.34 -1.64 5.68 -3 5 C-2.67 4.01 -2.34 3.02 -2 2 C-1.34 2 -0.68 2 0 2 C0 1.34 0 0.68 0 0 Z " fill="#8B5CF6" transform="translate(268,320)"/>
<path d="M0 0 C0.99 0.66 1.98 1.32 3 2 C2.67 3.32 2.34 4.64 2 6 C0.35 6 -1.3 6 -3 6 C-2.01 4.02 -1.02 2.04 0 0 Z " fill="#8B5CF6" transform="translate(259,330)"/>
<path d="M0 0 C0 0.99 0 1.98 0 3 C-2.88834003 5.10770759 -4.38462395 6 -8 6 C-8 5.34 -8 4.68 -8 4 C-7.01 4 -6.02 4 -5 4 C-5 3.01 -5 2.02 -5 1 C-2 0 -2 0 0 0 Z " fill="#8B5CF6" transform="translate(261,215)"/>
<path d="M0 0 C0.66 0 1.32 0 2 0 C2 0.66 2 1.32 2 2 C3.32 2.66 4.64 3.32 6 4 C5.67 4.66 5.34 5.32 5 6 C4.01 5.34 3.02 4.68 2 4 C-0.67145537 4.80161791 -0.67145537 4.80161791 -3 6 C-2.01 4.02 -1.02 2.04 0 0 Z " fill="#8B5CF6" transform="translate(269,168)"/>
<path d="M0 0 C-1.485 2.475 -1.485 2.475 -3 5 C-4.32 4.34 -5.64 3.68 -7 3 C-6.67 2.01 -6.34 1.02 -6 0 C-3.42525708 -0.99667468 -2.51072708 -1.25536354 0 0 Z " fill="#8B5CF6" transform="translate(198,265)"/>
<path d="M0 0 C0.66 0.33 1.32 0.66 2 1 C-2.82142857 7.29464286 -2.82142857 7.29464286 -7 8 C-6.02133662 6.85373678 -5.04205413 5.70800212 -4.0625 4.5625 C-3.51722656 3.92441406 -2.97195313 3.28632813 -2.41015625 2.62890625 C-1.63204305 1.73008851 -0.84063472 0.84063472 0 0 Z " fill="#8B5CF6" transform="translate(291,224)"/>
<path d="M0 0 C0.66 0 1.32 0 2 0 C1.67 1.98 1.34 3.96 1 6 C-0.32 6 -1.64 6 -3 6 C-2.67 4.68 -2.34 3.36 -2 2 C-1.34 2 -0.68 2 0 2 C0 1.34 0 0.68 0 0 Z " fill="#8B5CF6" transform="translate(280,179)"/>
<path d="M0 0 C2 0 2 0 3.625 1.5 C4.07875 1.995 4.5325 2.49 5 3 C4.67 3.66 4.34 4.32 4 5 C3.34 4.67 2.68 4.34 2 4 C1.67 4.66 1.34 5.32 1 6 C0.01 6 -0.98 6 -2 6 C-1.34 4.02 -0.68 2.04 0 0 Z " fill="#8B5CF6" transform="translate(275,174)"/>
<path d="M0 0 C0.66 0.33 1.32 0.66 2 1 C1.75 2.875 1.75 2.875 1 5 C-1.0625 6.25 -1.0625 6.25 -3 7 C-2.625 4.0625 -2.625 4.0625 -2 1 C-1.34 0.67 -0.68 0.34 0 0 Z " fill="#8B5CF6" transform="translate(267,167)"/>
<path d="M0 0 C0.99 0.33 1.98 0.66 3 1 C3 2.32 3 3.64 3 5 C1.35 5 -0.3 5 -2 5 C-1.34 3.35 -0.68 1.7 0 0 Z " fill="#8B5CF6" transform="translate(314,277)"/>
<path d="M0 0 C0.66 0.33 1.32 0.66 2 1 C1.01 1 0.02 1 -1 1 C-0.67 0.67 -0.34 0.34 0 0 Z M-5 4 C-4.01 4.33 -3.02 4.66 -2 5 C-2.66 5 -3.32 5 -4 5 C-4.33 5.99 -4.66 6.98 -5 8 C-5.99 8.33 -6.98 8.66 -8 9 C-6.125 5.125 -6.125 5.125 -5 4 Z " fill="#8B5CF6" transform="translate(247,271)"/>
<path d="M0 0 C0.66 0.33 1.32 0.66 2 1 C1.67 1.99 1.34 2.98 1 4 C-2.5625 5.1875 -2.5625 5.1875 -6 6 C-5 3 -5 3 -2.5625 1.25 C-1.716875 0.8375 -0.87125 0.425 0 0 Z " fill="#8B5CF6" transform="translate(194,203)"/>
<path d="M0 0 C1.65 1.65 3.3 3.3 5 5 C2.03 4.505 2.03 4.505 -1 4 C-1 1 -1 1 0 0 Z " fill="#8B5CF6" transform="translate(271,171)"/>
</svg>
