<svg xmlns="http://www.w3.org/2000/svg" xmlns:v="https://svgstorm.com"
viewBox = "0 0 500 500"
width="500"
height="500">
<g fill="None" fill-opacity="0.0" stroke="#000000" stroke-opacity="0.00" stroke-width="0.3"><path d="
M 0.00 500.00 
L 500.00 500.00
L 500.00 0.00
L 0.00 0.00
L 0.00 500.00
M 284.00 191.00 
C 283.95 191.49 284.00 192.00 284.00 192.00
C 283.12 201.36 268.24 208.15 262.75 215.75 C 257.27 223.35 246.68 231.32 240.00 238.00
C 234.17 243.83 226.41 253.17 220.25 258.25 C 214.09 263.33 204.54 279.32 196.00 273.00
C 195.50 272.95 195.00 273.00 195.00 273.00
C 192.53 273.22 192.60 272.22 191.00 271.00
C 186.39 267.50 181.54 262.66 177.75 258.25 C 173.97 253.84 166.58 249.64 165.00 244.00
C 157.14 234.27 171.55 222.42 177.30 216.30 C 183.04 210.18 192.12 202.54 198.70 195.70 C 205.27 188.85 212.02 181.68 219.70 174.70 C 227.38 167.73 232.21 159.97 241.08 154.08 C 249.95 148.19 264.98 159.82 268.70 166.30 C 272.43 172.77 290.74 182.36 284.00 191.00
M 331.00 267.00 
C 326.31 274.65 314.57 286.32 307.00 291.00
C 306.68 291.20 306.20 291.68 306.00 292.00
C 302.85 297.10 297.09 300.67 293.25 305.25 C 289.40 309.83 283.48 314.26 279.75 318.75 C 276.03 323.24 269.85 327.31 266.75 331.75 C 263.65 336.19 250.94 342.46 248.00 336.00
C 247.50 336.00 247.00 336.00 247.00 336.00
C 241.67 334.96 236.69 326.69 233.00 323.00
C 228.11 318.11 211.83 306.91 218.00 299.00
C 218.05 298.51 218.00 298.00 218.00 298.00
C 218.39 293.78 222.39 291.80 225.00 289.00
C 233.16 280.26 241.59 270.33 251.00 263.00
C 251.20 262.68 251.68 262.20 252.00 262.00
C 258.31 253.90 268.30 242.38 277.00 237.00
C 277.32 236.80 277.80 236.32 278.00 236.00
C 280.21 232.43 287.86 223.44 292.00 223.00
C 293.78 221.56 297.80 221.60 300.00 222.00
C 309.15 223.35 314.71 235.39 321.75 240.25 C 328.79 245.11 338.91 259.26 331.00 267.00 Z"/>
</g>
<g fill="None" fill-opacity="0.0" stroke="#E5D9F8" stroke-opacity="0.18" stroke-width="0.3"><path d="
M 165.00 244.00 
C 165.20 244.24 166.00 244.00 166.00 244.00
C 163.82 239.65 164.54 233.02 167.00 229.00
C 169.00 225.74 172.43 223.57 175.00 221.00
C 176.52 219.22 177.84 217.06 180.00 216.00
C 189.75 206.25 199.16 194.65 209.75 185.75 C 220.35 176.86 228.31 163.16 240.00 156.00
C 249.72 150.05 259.62 157.09 265.25 164.75 C 270.88 172.41 280.10 176.09 283.00 185.00
C 283.58 186.79 284.26 188.58 284.00 191.00
C 290.74 182.36 272.43 172.77 268.70 166.30 C 264.98 159.82 249.95 148.19 241.08 154.08 C 232.21 159.97 227.38 167.73 219.70 174.70 C 212.02 181.68 205.27 188.85 198.70 195.70 C 192.12 202.54 183.04 210.18 177.30 216.30 C 171.55 222.42 157.14 234.27 165.00 244.00 Z"/>
</g>
<g fill="None" fill-opacity="0.0" stroke="#8A68D4" stroke-opacity="1.00" stroke-width="0.3"><path d="
M 240.00 156.00 
C 229.31 163.71 220.39 176.48 210.75 185.75 C 201.11 195.02 188.61 205.11 181.00 216.00
C 183.78 214.64 185.20 210.72 189.00 212.00
C 188.45 209.42 189.32 207.84 192.00 205.00
C 197.06 207.61 198.02 205.72 203.00 206.00
C 206.06 212.55 224.20 213.14 223.00 221.00
C 227.19 218.35 228.73 225.36 233.00 224.00
C 232.12 230.13 239.59 228.92 239.00 235.00
C 244.82 232.71 249.78 223.94 254.00 222.00
C 262.30 213.70 275.82 204.81 282.00 195.00
C 282.27 194.44 282.26 192.40 283.00 192.00
C 283.38 190.13 283.31 186.89 283.00 185.00
C 280.10 176.09 270.88 172.41 265.25 164.75 C 259.62 157.09 249.72 150.05 240.00 156.00 Z"/>
</g>
<g fill="None" fill-opacity="0.0" stroke="#927DC0" stroke-opacity="0.80" stroke-width="0.3"><path d="
M 180.00 216.00 
C 180.40 215.80 181.00 216.00 181.00 216.00
C 188.61 205.11 201.11 195.02 210.75 185.75 C 220.39 176.48 229.31 163.71 240.00 156.00
C 228.31 163.16 220.35 176.86 209.75 185.75 C 199.16 194.65 189.75 206.25 180.00 216.00 Z"/>
</g>
<g fill="None" fill-opacity="0.0" stroke="#B0A1D9" stroke-opacity="0.77" stroke-width="0.3"><path d="
M 283.00 192.00 
C 283.38 191.79 284.00 192.00 284.00 192.00
C 284.00 192.00 283.95 191.49 284.00 191.00
C 284.26 188.58 283.58 186.79 283.00 185.00
C 283.31 186.89 283.38 190.13 283.00 192.00 Z"/>
</g>
<g fill="None" fill-opacity="0.0" stroke="#ECE4FD" stroke-opacity="0.04" stroke-width="0.3"><path d="
M 282.00 195.00 
C 277.89 203.67 266.99 208.47 261.25 216.25 C 255.50 224.03 245.56 230.04 240.00 238.00
C 246.68 231.32 257.27 223.35 262.75 215.75 C 268.24 208.15 283.12 201.36 284.00 192.00
C 284.00 192.00 283.38 191.79 283.00 192.00
C 282.26 192.40 282.27 194.44 282.00 195.00 Z"/>
</g>
<g fill="None" fill-opacity="0.0" stroke="#BFAEE2" stroke-opacity="0.42" stroke-width="0.3"><path d="
M 254.00 222.00 
C 248.91 227.09 244.01 232.94 239.00 238.00
C 239.35 237.77 240.00 238.00 240.00 238.00
C 245.56 230.04 255.50 224.03 261.25 216.25 C 266.99 208.47 277.89 203.67 282.00 195.00
C 275.82 204.81 262.30 213.70 254.00 222.00 Z"/>
</g>
<g fill="None" fill-opacity="0.0" stroke="#7E58CC" stroke-opacity="1.00" stroke-width="0.3"><path d="
M 181.00 216.00 
C 181.00 216.00 180.40 215.80 180.00 216.00
C 177.84 217.06 176.52 219.22 175.00 221.00
C 172.73 223.66 168.92 226.33 167.00 229.00
C 164.54 233.02 163.82 239.65 166.00 244.00
C 166.47 244.23 166.77 245.61 167.00 246.00
C 174.97 254.54 185.40 266.86 195.00 273.00
C 195.00 273.00 195.50 272.95 196.00 273.00
C 206.19 273.96 212.62 263.82 219.25 257.25 C 225.87 250.67 232.71 244.35 239.00 238.00
C 244.01 232.94 248.91 227.09 254.00 222.00
C 249.78 223.94 244.82 232.71 239.00 235.00
C 239.59 228.92 232.12 230.13 233.00 224.00
C 228.73 225.36 227.19 218.35 223.00 221.00
C 224.20 213.14 206.06 212.55 203.00 206.00
C 198.02 205.72 197.06 207.61 192.00 205.00
C 189.32 207.84 188.45 209.42 189.00 212.00
C 185.20 210.72 183.78 214.64 181.00 216.00 Z"/>
</g>
<g fill="None" fill-opacity="0.0" stroke="#907ABE" stroke-opacity="0.77" stroke-width="0.3"><path d="
M 167.00 229.00 
C 168.92 226.33 172.73 223.66 175.00 221.00
C 172.43 223.57 169.00 225.74 167.00 229.00 Z"/>
</g>
<g fill="None" fill-opacity="0.0" stroke="#AA99D8" stroke-opacity="0.46" stroke-width="0.3"><path d="
M 292.00 223.00 
C 291.76 223.20 292.00 224.00 292.00 224.00
C 294.40 222.62 297.24 222.94 300.00 223.00
C 299.90 222.98 300.00 222.00 300.00 222.00
C 297.80 221.60 293.78 221.56 292.00 223.00 Z"/>
</g>
<g fill="None" fill-opacity="0.0" stroke="#D9CDF1" stroke-opacity="0.20" stroke-width="0.3"><path d="
M 300.00 223.00 
C 309.49 224.92 313.16 236.40 321.25 241.75 C 329.34 247.11 336.37 259.20 329.00 268.00
C 329.48 267.55 330.60 267.40 331.00 267.00
C 338.91 259.26 328.79 245.11 321.75 240.25 C 314.71 235.39 309.15 223.35 300.00 222.00
C 300.00 222.00 299.90 222.98 300.00 223.00 Z"/>
</g>
<g fill="None" fill-opacity="0.0" stroke="#F2E8FD" stroke-opacity="0.03" stroke-width="0.3"><path d="
M 278.00 236.00 
C 282.33 232.62 286.13 226.38 291.00 224.00
C 291.40 223.80 292.00 224.00 292.00 224.00
C 292.00 224.00 291.76 223.20 292.00 223.00
C 287.86 223.44 280.21 232.43 278.00 236.00 Z"/>
</g>
<g fill="None" fill-opacity="0.0" stroke="#8463D1" stroke-opacity="1.00" stroke-width="0.3"><path d="
M 292.00 224.00 
C 292.00 224.00 291.40 223.80 291.00 224.00
C 283.13 235.26 270.52 244.30 261.00 254.00
C 259.99 255.22 259.17 256.03 258.00 257.00
C 256.56 258.41 255.38 260.62 254.00 262.00
C 253.97 264.56 265.55 265.56 264.00 260.00
C 266.31 262.45 267.58 265.56 272.00 265.00
C 268.78 270.41 274.24 270.30 278.74 273.26 C 283.25 276.21 286.63 278.61 291.00 280.00
C 290.57 285.69 297.80 287.45 297.00 293.00
C 298.91 289.30 299.13 293.91 301.00 295.00
C 309.94 286.06 320.94 277.62 329.00 268.00
C 336.37 259.20 329.34 247.11 321.25 241.75 C 313.16 236.40 309.49 224.92 300.00 223.00
C 297.24 222.94 294.40 222.62 292.00 224.00 Z"/>
</g>
<g fill="None" fill-opacity="0.0" stroke="#BCAADE" stroke-opacity="0.40" stroke-width="0.3"><path d="
M 278.00 236.00 
C 277.80 236.32 277.32 236.80 277.00 237.00
C 272.26 243.09 265.89 248.11 261.00 254.00
C 270.52 244.30 283.13 235.26 291.00 224.00
C 286.13 226.38 282.33 232.62 278.00 236.00 Z"/>
</g>
<g fill="None" fill-opacity="0.0" stroke="#F3E2FD" stroke-opacity="0.07" stroke-width="0.3"><path d="
M 252.00 262.00 
C 254.14 260.68 256.12 258.56 258.00 257.00
C 259.17 256.03 259.99 255.22 261.00 254.00
C 265.89 248.11 272.26 243.09 277.00 237.00
C 268.30 242.38 258.31 253.90 252.00 262.00 Z"/>
</g>
<g fill="None" fill-opacity="0.0" stroke="#D2C3EE" stroke-opacity="0.23" stroke-width="0.3"><path d="
M 196.00 273.00 
C 204.54 279.32 214.09 263.33 220.25 258.25 C 226.41 253.17 234.17 243.83 240.00 238.00
C 240.00 238.00 239.35 237.77 239.00 238.00
C 232.71 244.35 225.87 250.67 219.25 257.25 C 212.62 263.82 206.19 273.96 196.00 273.00 Z"/>
</g>
<g fill="None" fill-opacity="0.0" stroke="#E9DBFA" stroke-opacity="0.04" stroke-width="0.3"><path d="
M 191.00 271.00 
C 183.50 264.27 172.21 254.55 167.00 246.00
C 166.77 245.61 166.47 244.23 166.00 244.00
C 166.00 244.00 165.20 244.24 165.00 244.00
C 166.58 249.64 173.97 253.84 177.75 258.25 C 181.54 262.66 186.39 267.50 191.00 271.00 Z"/>
</g>
<g fill="None" fill-opacity="0.0" stroke="#B8A9D9" stroke-opacity="0.43" stroke-width="0.3"><path d="
M 191.00 271.00 
C 192.60 272.22 192.53 273.22 195.00 273.00
C 185.40 266.86 174.97 254.54 167.00 246.00
C 172.21 254.55 183.50 264.27 191.00 271.00 Z"/>
</g>
<g fill="None" fill-opacity="0.0" stroke="#C4B0E4" stroke-opacity="0.35" stroke-width="0.3"><path d="
M 252.00 262.00 
C 251.68 262.20 251.20 262.68 251.00 263.00
C 245.06 272.61 233.23 281.46 225.00 289.00
C 222.39 291.80 218.39 293.78 218.00 298.00
C 218.25 297.75 219.00 298.00 219.00 298.00
C 221.42 290.59 230.80 286.00 235.75 279.75 C 240.70 273.50 248.40 267.60 254.00 262.00
C 255.38 260.62 256.56 258.41 258.00 257.00
C 256.12 258.56 254.14 260.68 252.00 262.00 Z"/>
</g>
<g fill="None" fill-opacity="0.0" stroke="#7852C8" stroke-opacity="1.00" stroke-width="0.3"><path d="
M 254.00 262.00 
C 248.40 267.60 240.70 273.50 235.75 279.75 C 230.80 286.00 221.42 290.59 219.00 298.00
C 219.31 300.29 218.76 302.70 219.00 305.00
C 219.17 306.66 219.25 307.52 220.00 309.00
C 222.86 313.61 230.10 319.10 234.00 323.00
C 239.48 325.68 242.01 332.81 247.00 336.00
C 247.00 336.00 247.50 336.00 248.00 336.00
C 248.50 336.00 249.50 336.00 250.00 336.00
C 252.08 336.00 256.88 337.15 258.00 337.00
C 259.20 336.72 260.96 335.67 262.00 335.00
C 276.18 324.13 288.38 307.62 301.00 295.00
C 299.13 293.91 298.91 289.30 297.00 293.00
C 297.80 287.45 290.57 285.69 291.00 280.00
C 286.63 278.61 283.25 276.21 278.74 273.26 C 274.24 270.30 268.78 270.41 272.00 265.00
C 267.58 265.56 266.31 262.45 264.00 260.00
C 265.55 265.56 253.97 264.56 254.00 262.00 Z"/>
</g>
<g fill="None" fill-opacity="0.0" stroke="#F1ECFD" stroke-opacity="0.03" stroke-width="0.3"><path d="
M 225.00 289.00 
C 233.23 281.46 245.06 272.61 251.00 263.00
C 241.59 270.33 233.16 280.26 225.00 289.00 Z"/>
</g>
<g fill="None" fill-opacity="0.0" stroke="#EEE4FD" stroke-opacity="0.06" stroke-width="0.3"><path d="
M 329.00 268.00 
C 321.61 274.90 313.18 283.07 307.00 291.00
C 314.57 286.32 326.31 274.65 331.00 267.00
C 330.60 267.40 329.48 267.55 329.00 268.00 Z"/>
</g>
<g fill="None" fill-opacity="0.0" stroke="#9F8BCA" stroke-opacity="0.60" stroke-width="0.3"><path d="
M 301.00 295.00 
C 288.38 307.62 276.18 324.13 262.00 335.00
C 278.81 324.15 290.25 304.27 306.00 292.00
C 306.20 291.68 306.68 291.20 307.00 291.00
C 313.18 283.07 321.61 274.90 329.00 268.00
C 320.94 277.62 309.94 286.06 301.00 295.00 Z"/>
</g>
<g fill="None" fill-opacity="0.0" stroke="#E3D8FA" stroke-opacity="0.09" stroke-width="0.3"><path d="
M 262.00 335.00 
C 260.96 335.67 259.20 336.72 258.00 337.00
C 255.26 337.63 252.05 336.87 250.00 336.00
C 249.50 336.00 248.50 336.00 248.00 336.00
C 250.94 342.46 263.65 336.19 266.75 331.75 C 269.85 327.31 276.03 323.24 279.75 318.75 C 283.48 314.26 289.40 309.83 293.25 305.25 C 297.09 300.67 302.85 297.10 306.00 292.00
C 290.25 304.27 278.81 324.15 262.00 335.00 Z"/>
</g>
<g fill="None" fill-opacity="0.0" stroke="#927DC5" stroke-opacity="0.84" stroke-width="0.3"><path d="
M 218.00 299.00 
C 217.74 301.45 218.58 303.25 219.00 305.00
C 218.76 302.70 219.31 300.29 219.00 298.00
C 219.00 298.00 218.25 297.75 218.00 298.00
C 218.00 298.00 218.05 298.51 218.00 299.00 Z"/>
</g>
<g fill="None" fill-opacity="0.0" stroke="#EADEFC" stroke-opacity="0.08" stroke-width="0.3"><path d="
M 233.00 323.00 
C 229.50 317.98 222.72 314.40 220.00 309.00
C 219.25 307.52 219.17 306.66 219.00 305.00
C 218.58 303.25 217.74 301.45 218.00 299.00
C 211.83 306.91 228.11 318.11 233.00 323.00 Z"/>
</g>
<g fill="None" fill-opacity="0.0" stroke="#9883C5" stroke-opacity="0.55" stroke-width="0.3"><path d="
M 233.00 323.00 
C 233.16 323.23 234.00 323.00 234.00 323.00
C 230.10 319.10 222.86 313.61 220.00 309.00
C 222.72 314.40 229.50 317.98 233.00 323.00 Z"/>
</g>
<g fill="None" fill-opacity="0.0" stroke="#E1CEF7" stroke-opacity="0.23" stroke-width="0.3"><path d="
M 247.00 336.00 
C 242.01 332.81 239.48 325.68 234.00 323.00
C 234.00 323.00 233.16 323.23 233.00 323.00
C 236.69 326.69 241.67 334.96 247.00 336.00 Z"/>
</g>
<g fill="None" fill-opacity="0.0" stroke="#7661A4" stroke-opacity="0.77" stroke-width="0.3"><path d="
M 258.00 337.00 
C 256.88 337.15 252.08 336.00 250.00 336.00
C 252.05 336.87 255.26 337.63 258.00 337.00 Z"/>
</g>
<g fill="#000000" fill-opacity="0.00" stroke="None">
<path d="
M 0.00 500.00 
L 500.00 500.00
L 500.00 0.00
L 0.00 0.00
L 0.00 500.00
M 284.00 191.00 
C 283.95 191.49 284.00 192.00 284.00 192.00
C 283.12 201.36 268.24 208.15 262.75 215.75 C 257.27 223.35 246.68 231.32 240.00 238.00
C 234.17 243.83 226.41 253.17 220.25 258.25 C 214.09 263.33 204.54 279.32 196.00 273.00
C 195.50 272.95 195.00 273.00 195.00 273.00
C 192.53 273.22 192.60 272.22 191.00 271.00
C 186.39 267.50 181.54 262.66 177.75 258.25 C 173.97 253.84 166.58 249.64 165.00 244.00
C 157.14 234.27 171.55 222.42 177.30 216.30 C 183.04 210.18 192.12 202.54 198.70 195.70 C 205.27 188.85 212.02 181.68 219.70 174.70 C 227.38 167.73 232.21 159.97 241.08 154.08 C 249.95 148.19 264.98 159.82 268.70 166.30 C 272.43 172.77 290.74 182.36 284.00 191.00
M 331.00 267.00 
C 326.31 274.65 314.57 286.32 307.00 291.00
C 306.68 291.20 306.20 291.68 306.00 292.00
C 302.85 297.10 297.09 300.67 293.25 305.25 C 289.40 309.83 283.48 314.26 279.75 318.75 C 276.03 323.24 269.85 327.31 266.75 331.75 C 263.65 336.19 250.94 342.46 248.00 336.00
C 247.50 336.00 247.00 336.00 247.00 336.00
C 241.67 334.96 236.69 326.69 233.00 323.00
C 228.11 318.11 211.83 306.91 218.00 299.00
C 218.05 298.51 218.00 298.00 218.00 298.00
C 218.39 293.78 222.39 291.80 225.00 289.00
C 233.16 280.26 241.59 270.33 251.00 263.00
C 251.20 262.68 251.68 262.20 252.00 262.00
C 258.31 253.90 268.30 242.38 277.00 237.00
C 277.32 236.80 277.80 236.32 278.00 236.00
C 280.21 232.43 287.86 223.44 292.00 223.00
C 293.78 221.56 297.80 221.60 300.00 222.00
C 309.15 223.35 314.71 235.39 321.75 240.25 C 328.79 245.11 338.91 259.26 331.00 267.00 Z"/>
</g>
<g fill="#E5D9F8" fill-opacity="0.18" stroke="None">
<path d="
M 165.00 244.00 
C 165.20 244.24 166.00 244.00 166.00 244.00
C 163.82 239.65 164.54 233.02 167.00 229.00
C 169.00 225.74 172.43 223.57 175.00 221.00
C 176.52 219.22 177.84 217.06 180.00 216.00
C 189.75 206.25 199.16 194.65 209.75 185.75 C 220.35 176.86 228.31 163.16 240.00 156.00
C 249.72 150.05 259.62 157.09 265.25 164.75 C 270.88 172.41 280.10 176.09 283.00 185.00
C 283.58 186.79 284.26 188.58 284.00 191.00
C 290.74 182.36 272.43 172.77 268.70 166.30 C 264.98 159.82 249.95 148.19 241.08 154.08 C 232.21 159.97 227.38 167.73 219.70 174.70 C 212.02 181.68 205.27 188.85 198.70 195.70 C 192.12 202.54 183.04 210.18 177.30 216.30 C 171.55 222.42 157.14 234.27 165.00 244.00 Z"/>
</g>
<g fill="#8A68D4" fill-opacity="1.00" stroke="None">
<path d="
M 240.00 156.00 
C 229.31 163.71 220.39 176.48 210.75 185.75 C 201.11 195.02 188.61 205.11 181.00 216.00
C 183.78 214.64 185.20 210.72 189.00 212.00
C 188.45 209.42 189.32 207.84 192.00 205.00
C 197.06 207.61 198.02 205.72 203.00 206.00
C 206.06 212.55 224.20 213.14 223.00 221.00
C 227.19 218.35 228.73 225.36 233.00 224.00
C 232.12 230.13 239.59 228.92 239.00 235.00
C 244.82 232.71 249.78 223.94 254.00 222.00
C 262.30 213.70 275.82 204.81 282.00 195.00
C 282.27 194.44 282.26 192.40 283.00 192.00
C 283.38 190.13 283.31 186.89 283.00 185.00
C 280.10 176.09 270.88 172.41 265.25 164.75 C 259.62 157.09 249.72 150.05 240.00 156.00 Z"/>
</g>
<g fill="#927DC0" fill-opacity="0.80" stroke="None">
<path d="
M 180.00 216.00 
C 180.40 215.80 181.00 216.00 181.00 216.00
C 188.61 205.11 201.11 195.02 210.75 185.75 C 220.39 176.48 229.31 163.71 240.00 156.00
C 228.31 163.16 220.35 176.86 209.75 185.75 C 199.16 194.65 189.75 206.25 180.00 216.00 Z"/>
</g>
<g fill="#B0A1D9" fill-opacity="0.77" stroke="None">
<path d="
M 283.00 192.00 
C 283.38 191.79 284.00 192.00 284.00 192.00
C 284.00 192.00 283.95 191.49 284.00 191.00
C 284.26 188.58 283.58 186.79 283.00 185.00
C 283.31 186.89 283.38 190.13 283.00 192.00 Z"/>
</g>
<g fill="#ECE4FD" fill-opacity="0.04" stroke="None">
<path d="
M 282.00 195.00 
C 277.89 203.67 266.99 208.47 261.25 216.25 C 255.50 224.03 245.56 230.04 240.00 238.00
C 246.68 231.32 257.27 223.35 262.75 215.75 C 268.24 208.15 283.12 201.36 284.00 192.00
C 284.00 192.00 283.38 191.79 283.00 192.00
C 282.26 192.40 282.27 194.44 282.00 195.00 Z"/>
</g>
<g fill="#BFAEE2" fill-opacity="0.42" stroke="None">
<path d="
M 254.00 222.00 
C 248.91 227.09 244.01 232.94 239.00 238.00
C 239.35 237.77 240.00 238.00 240.00 238.00
C 245.56 230.04 255.50 224.03 261.25 216.25 C 266.99 208.47 277.89 203.67 282.00 195.00
C 275.82 204.81 262.30 213.70 254.00 222.00 Z"/>
</g>
<g fill="#7E58CC" fill-opacity="1.00" stroke="None">
<path d="
M 181.00 216.00 
C 181.00 216.00 180.40 215.80 180.00 216.00
C 177.84 217.06 176.52 219.22 175.00 221.00
C 172.73 223.66 168.92 226.33 167.00 229.00
C 164.54 233.02 163.82 239.65 166.00 244.00
C 166.47 244.23 166.77 245.61 167.00 246.00
C 174.97 254.54 185.40 266.86 195.00 273.00
C 195.00 273.00 195.50 272.95 196.00 273.00
C 206.19 273.96 212.62 263.82 219.25 257.25 C 225.87 250.67 232.71 244.35 239.00 238.00
C 244.01 232.94 248.91 227.09 254.00 222.00
C 249.78 223.94 244.82 232.71 239.00 235.00
C 239.59 228.92 232.12 230.13 233.00 224.00
C 228.73 225.36 227.19 218.35 223.00 221.00
C 224.20 213.14 206.06 212.55 203.00 206.00
C 198.02 205.72 197.06 207.61 192.00 205.00
C 189.32 207.84 188.45 209.42 189.00 212.00
C 185.20 210.72 183.78 214.64 181.00 216.00 Z"/>
</g>
<g fill="#907ABE" fill-opacity="0.77" stroke="None">
<path d="
M 167.00 229.00 
C 168.92 226.33 172.73 223.66 175.00 221.00
C 172.43 223.57 169.00 225.74 167.00 229.00 Z"/>
</g>
<g fill="#AA99D8" fill-opacity="0.46" stroke="None">
<path d="
M 292.00 223.00 
C 291.76 223.20 292.00 224.00 292.00 224.00
C 294.40 222.62 297.24 222.94 300.00 223.00
C 299.90 222.98 300.00 222.00 300.00 222.00
C 297.80 221.60 293.78 221.56 292.00 223.00 Z"/>
</g>
<g fill="#D9CDF1" fill-opacity="0.20" stroke="None">
<path d="
M 300.00 223.00 
C 309.49 224.92 313.16 236.40 321.25 241.75 C 329.34 247.11 336.37 259.20 329.00 268.00
C 329.48 267.55 330.60 267.40 331.00 267.00
C 338.91 259.26 328.79 245.11 321.75 240.25 C 314.71 235.39 309.15 223.35 300.00 222.00
C 300.00 222.00 299.90 222.98 300.00 223.00 Z"/>
</g>
<g fill="#F2E8FD" fill-opacity="0.03" stroke="None">
<path d="
M 278.00 236.00 
C 282.33 232.62 286.13 226.38 291.00 224.00
C 291.40 223.80 292.00 224.00 292.00 224.00
C 292.00 224.00 291.76 223.20 292.00 223.00
C 287.86 223.44 280.21 232.43 278.00 236.00 Z"/>
</g>
<g fill="#8463D1" fill-opacity="1.00" stroke="None">
<path d="
M 292.00 224.00 
C 292.00 224.00 291.40 223.80 291.00 224.00
C 283.13 235.26 270.52 244.30 261.00 254.00
C 259.99 255.22 259.17 256.03 258.00 257.00
C 256.56 258.41 255.38 260.62 254.00 262.00
C 253.97 264.56 265.55 265.56 264.00 260.00
C 266.31 262.45 267.58 265.56 272.00 265.00
C 268.78 270.41 274.24 270.30 278.74 273.26 C 283.25 276.21 286.63 278.61 291.00 280.00
C 290.57 285.69 297.80 287.45 297.00 293.00
C 298.91 289.30 299.13 293.91 301.00 295.00
C 309.94 286.06 320.94 277.62 329.00 268.00
C 336.37 259.20 329.34 247.11 321.25 241.75 C 313.16 236.40 309.49 224.92 300.00 223.00
C 297.24 222.94 294.40 222.62 292.00 224.00 Z"/>
</g>
<g fill="#BCAADE" fill-opacity="0.40" stroke="None">
<path d="
M 278.00 236.00 
C 277.80 236.32 277.32 236.80 277.00 237.00
C 272.26 243.09 265.89 248.11 261.00 254.00
C 270.52 244.30 283.13 235.26 291.00 224.00
C 286.13 226.38 282.33 232.62 278.00 236.00 Z"/>
</g>
<g fill="#F3E2FD" fill-opacity="0.07" stroke="None">
<path d="
M 252.00 262.00 
C 254.14 260.68 256.12 258.56 258.00 257.00
C 259.17 256.03 259.99 255.22 261.00 254.00
C 265.89 248.11 272.26 243.09 277.00 237.00
C 268.30 242.38 258.31 253.90 252.00 262.00 Z"/>
</g>
<g fill="#D2C3EE" fill-opacity="0.23" stroke="None">
<path d="
M 196.00 273.00 
C 204.54 279.32 214.09 263.33 220.25 258.25 C 226.41 253.17 234.17 243.83 240.00 238.00
C 240.00 238.00 239.35 237.77 239.00 238.00
C 232.71 244.35 225.87 250.67 219.25 257.25 C 212.62 263.82 206.19 273.96 196.00 273.00 Z"/>
</g>
<g fill="#E9DBFA" fill-opacity="0.04" stroke="None">
<path d="
M 191.00 271.00 
C 183.50 264.27 172.21 254.55 167.00 246.00
C 166.77 245.61 166.47 244.23 166.00 244.00
C 166.00 244.00 165.20 244.24 165.00 244.00
C 166.58 249.64 173.97 253.84 177.75 258.25 C 181.54 262.66 186.39 267.50 191.00 271.00 Z"/>
</g>
<g fill="#B8A9D9" fill-opacity="0.43" stroke="None">
<path d="
M 191.00 271.00 
C 192.60 272.22 192.53 273.22 195.00 273.00
C 185.40 266.86 174.97 254.54 167.00 246.00
C 172.21 254.55 183.50 264.27 191.00 271.00 Z"/>
</g>
<g fill="#C4B0E4" fill-opacity="0.35" stroke="None">
<path d="
M 252.00 262.00 
C 251.68 262.20 251.20 262.68 251.00 263.00
C 245.06 272.61 233.23 281.46 225.00 289.00
C 222.39 291.80 218.39 293.78 218.00 298.00
C 218.25 297.75 219.00 298.00 219.00 298.00
C 221.42 290.59 230.80 286.00 235.75 279.75 C 240.70 273.50 248.40 267.60 254.00 262.00
C 255.38 260.62 256.56 258.41 258.00 257.00
C 256.12 258.56 254.14 260.68 252.00 262.00 Z"/>
</g>
<g fill="#7852C8" fill-opacity="1.00" stroke="None">
<path d="
M 254.00 262.00 
C 248.40 267.60 240.70 273.50 235.75 279.75 C 230.80 286.00 221.42 290.59 219.00 298.00
C 219.31 300.29 218.76 302.70 219.00 305.00
C 219.17 306.66 219.25 307.52 220.00 309.00
C 222.86 313.61 230.10 319.10 234.00 323.00
C 239.48 325.68 242.01 332.81 247.00 336.00
C 247.00 336.00 247.50 336.00 248.00 336.00
C 248.50 336.00 249.50 336.00 250.00 336.00
C 252.08 336.00 256.88 337.15 258.00 337.00
C 259.20 336.72 260.96 335.67 262.00 335.00
C 276.18 324.13 288.38 307.62 301.00 295.00
C 299.13 293.91 298.91 289.30 297.00 293.00
C 297.80 287.45 290.57 285.69 291.00 280.00
C 286.63 278.61 283.25 276.21 278.74 273.26 C 274.24 270.30 268.78 270.41 272.00 265.00
C 267.58 265.56 266.31 262.45 264.00 260.00
C 265.55 265.56 253.97 264.56 254.00 262.00 Z"/>
</g>
<g fill="#F1ECFD" fill-opacity="0.03" stroke="None">
<path d="
M 225.00 289.00 
C 233.23 281.46 245.06 272.61 251.00 263.00
C 241.59 270.33 233.16 280.26 225.00 289.00 Z"/>
</g>
<g fill="#EEE4FD" fill-opacity="0.06" stroke="None">
<path d="
M 329.00 268.00 
C 321.61 274.90 313.18 283.07 307.00 291.00
C 314.57 286.32 326.31 274.65 331.00 267.00
C 330.60 267.40 329.48 267.55 329.00 268.00 Z"/>
</g>
<g fill="#9F8BCA" fill-opacity="0.60" stroke="None">
<path d="
M 301.00 295.00 
C 288.38 307.62 276.18 324.13 262.00 335.00
C 278.81 324.15 290.25 304.27 306.00 292.00
C 306.20 291.68 306.68 291.20 307.00 291.00
C 313.18 283.07 321.61 274.90 329.00 268.00
C 320.94 277.62 309.94 286.06 301.00 295.00 Z"/>
</g>
<g fill="#E3D8FA" fill-opacity="0.09" stroke="None">
<path d="
M 262.00 335.00 
C 260.96 335.67 259.20 336.72 258.00 337.00
C 255.26 337.63 252.05 336.87 250.00 336.00
C 249.50 336.00 248.50 336.00 248.00 336.00
C 250.94 342.46 263.65 336.19 266.75 331.75 C 269.85 327.31 276.03 323.24 279.75 318.75 C 283.48 314.26 289.40 309.83 293.25 305.25 C 297.09 300.67 302.85 297.10 306.00 292.00
C 290.25 304.27 278.81 324.15 262.00 335.00 Z"/>
</g>
<g fill="#927DC5" fill-opacity="0.84" stroke="None">
<path d="
M 218.00 299.00 
C 217.74 301.45 218.58 303.25 219.00 305.00
C 218.76 302.70 219.31 300.29 219.00 298.00
C 219.00 298.00 218.25 297.75 218.00 298.00
C 218.00 298.00 218.05 298.51 218.00 299.00 Z"/>
</g>
<g fill="#EADEFC" fill-opacity="0.08" stroke="None">
<path d="
M 233.00 323.00 
C 229.50 317.98 222.72 314.40 220.00 309.00
C 219.25 307.52 219.17 306.66 219.00 305.00
C 218.58 303.25 217.74 301.45 218.00 299.00
C 211.83 306.91 228.11 318.11 233.00 323.00 Z"/>
</g>
<g fill="#9883C5" fill-opacity="0.55" stroke="None">
<path d="
M 233.00 323.00 
C 233.16 323.23 234.00 323.00 234.00 323.00
C 230.10 319.10 222.86 313.61 220.00 309.00
C 222.72 314.40 229.50 317.98 233.00 323.00 Z"/>
</g>
<g fill="#E1CEF7" fill-opacity="0.23" stroke="None">
<path d="
M 247.00 336.00 
C 242.01 332.81 239.48 325.68 234.00 323.00
C 234.00 323.00 233.16 323.23 233.00 323.00
C 236.69 326.69 241.67 334.96 247.00 336.00 Z"/>
</g>
<g fill="#7661A4" fill-opacity="0.77" stroke="None">
<path d="
M 258.00 337.00 
C 256.88 337.15 252.08 336.00 250.00 336.00
C 252.05 336.87 255.26 337.63 258.00 337.00 Z"/>
</g>
</svg>