<?xml version="1.0" encoding="utf-8"?>
<!-- Svg Vector Icons : http://www.onlinewebfonts.com/icon -->
<!DOCTYPE svg PUBLIC "-//W3C//DTD SVG 1.1//EN" "http://www.w3.org/Graphics/SVG/1.1/DTD/svg11.dtd">
<svg version="1.1" xmlns="http://www.w3.org/2000/svg" xmlns:xlink="http://www.w3.org/1999/xlink" x="0px" y="0px" viewBox="0 0 256 256" enable-background="new 0 0 256 256" xml:space="preserve">
<metadata> Svg Vector Icons : http://www.onlinewebfonts.com/icon </metadata>
<g><g><path fill="#000000" d="M130,10L130,10"/><path fill="#000000" d="M215.2,114.5c-4.8-11.3-11.6-21.4-20.3-30.1c-8.7-8.7-18.8-15.5-30.1-20.3c-11.7-4.9-24.1-7.4-36.9-7.4c-12.8,0-25.2,2.5-36.8,7.4C79.9,68.8,69.7,75.7,61,84.4c-8.7,8.7-15.5,18.8-20.3,30.1c-4.9,11.7-7.4,24.1-7.4,36.8c0,12.8,2.5,25.2,7.4,36.8c4.8,11.3,11.6,21.4,20.3,30.1c8.7,8.7,18.8,15.5,30.1,20.3c11.7,4.9,24.1,7.4,36.9,7.4c12.8,0,25.2-2.5,36.9-7.4c11.3-4.8,21.4-11.6,30.1-20.3s15.5-18.8,20.3-30.1c4.9-11.7,7.4-24.1,7.4-36.8C222.7,138.5,220.2,126.1,215.2,114.5z M128,239.5c-48.6,0-88.2-39.5-88.2-88.2c0-48.6,39.5-88.2,88.2-88.2c48.6,0,88.2,39.5,88.2,88.2C216.2,199.9,176.6,239.5,128,239.5z"/><path fill="#000000" d="M193.2,151.4c-0.1-4.4-1.9-8.6-4.8-11.9l0.1-0.1c-3.2-3.2-7.5-4.9-12.1-4.9c-5,0-9.7,2-13.3,5.6l-7.2,7.2l-21.4-21.4l7.2-7.2c7.2-7.2,7.5-18.6,0.7-25.5c-3.2-3.2-7.4-4.9-11.8-4.9c-3.7,0-7.4,1.2-10.5,3.5c-1,0.7-2,1.7-2.1,1.8l0,0c-6.8,6.8-6.5,18.3,0.7,25.5l6.8,6.8l-20.9,20.9l-7.1-7.1c-3.6-3.6-8.4-5.6-13.3-5.6c-4.6,0-8.9,1.8-12.1,4.9c-3.2,3.2-5,7.5-5,12.1c0,4.6,1.7,9,4.8,12.4c0,0,0.1,0.1,0.2,0.2c3.2,3.2,7.5,4.9,12.1,4.9c5,0,9.7-2,13.3-5.6l7.1-7.1l21.4,21.4l-7.1,7.1c-3.5,3.5-5.4,8-5.6,12.8c-0.1,4.8,1.6,9.4,4.9,12.7l0.1,0.1c3.3,2.9,7.5,4.5,11.8,4.5c4.7,0,9-1.8,12.3-5.1c6.8-6.8,6.5-18.3-0.7-25.5l-6.7-6.6l20.9-20.9l7,7c3.6,3.6,8.4,5.6,13.3,5.6c4.6,0,8.9-1.8,12.1-4.9C191.6,160.8,193.3,156.3,193.2,151.4z M71.7,163.6c-0.8-0.9-1.1-2.3-0.5-3.5l2.9,1.3L71.7,163.6z M74.1,161.3v-3.1c0.8,0,1.7,0.3,2.3,0.9L74.1,161.3z M92.6,158.4c-2.4,2.4-5.5,3.7-8.7,3.7c-2.9,0-5.5-1.1-7.5-3l0,0c-4.1-4.4-4.1-11.4,0-15.5c2-2,4.6-3,7.5-3c3.2,0,6.4,1.3,8.7,3.7l7.1,7.1L92.6,158.4z M123,114.5c-4.6-4.6-5-11.9-0.7-16.2c0.2-0.2,0.9-0.8,1.4-1.2c2-1.5,4.3-2.3,6.7-2.3c2.7,0,5.3,1.1,7.2,3c4.3,4.3,4,11.6-0.7,16.2l-7.2,7.2L123,114.5z M137,188.6c4.6,4.6,5,11.9,0.7,16.2c-2,2-4.8,3.2-7.7,3.2c-2.7,0-5.3-1-7.4-2.8c-2-2-3.1-4.8-3-7.8c0.1-3.1,1.4-6.1,3.7-8.4l7.1-7.1l0,0L137,188.6z M130.3,172.7l-21.4-21.4l20.9-20.9l21.4,21.4L130.3,172.7z M183.6,159.5c-2,2-4.6,3-7.5,3c-3.2,0-6.4-1.3-8.7-3.7l-7-7l7.2-7.2c2.4-2.4,5.5-3.7,8.7-3.7c2.5,0,4.8,0.8,6.6,2.3l0,0c2.3,2.3,3.6,5.3,3.7,8.4C186.8,154.7,185.7,157.5,183.6,159.5z"/></g></g>
</svg>