<?xml version="1.0" encoding="UTF-8"?>
<svg version="1.1" xmlns="http://www.w3.org/2000/svg" width="512" height="512">
<path d="M0 0 C0.80050781 0.37769531 1.60101563 0.75539063 2.42578125 1.14453125 C12.20204479 6.05491552 21.05599024 12.74639502 30 19 C30.82242187 19.57347168 31.64484375 20.14694336 32.4921875 20.73779297 C37.49595472 24.22721029 42.49164957 27.72799891 47.48388672 31.23388672 C51.65291862 34.16021864 55.8266852 37.07978099 60 40 C61.66668961 41.16663389 63.33335627 42.33330057 65 43.5 C66.2375 44.36625 66.2375 44.36625 67.5 45.25 C96.66666667 65.66666667 125.83333333 86.08333333 155 106.5 C155.82516113 107.07758057 156.65032227 107.65516113 157.50048828 108.25024414 C159.16564972 109.41592221 160.83068898 110.58177484 162.49560547 111.74780273 C166.68431303 114.68104494 170.87515899 117.6111391 175.0703125 120.53515625 C228.66202936 157.91355864 228.66202936 157.91355864 233.62895322 179.77706504 C235.11607802 188.68640447 234.5401771 197.99918133 234.50170898 206.99731445 C234.50549663 209.52496643 234.51100033 212.05261633 234.51808167 214.58026123 C234.53055534 220.70876218 234.52450756 226.83699848 234.50940608 232.96548597 C234.49245582 240.11960399 234.49576772 247.27367163 234.49950016 254.42780354 C234.50536674 267.20475895 234.49125633 279.98161556 234.46655273 292.75854492 C234.44265066 305.12251491 234.43554416 317.48635285 234.44604492 329.8503418 C234.4574883 343.34816943 234.45934095 356.84593611 234.44494683 370.34376305 C234.44342117 371.78685041 234.44190082 373.22993777 234.44038582 374.67302513 C234.439628 375.38284346 234.43887019 376.09266178 234.43808941 376.82398975 C234.43337175 381.79597696 234.43518013 386.76793672 234.43945122 391.73992348 C234.4449306 398.45006528 234.43400293 405.15999945 234.41249657 411.87011719 C234.40696617 414.32255124 234.40642861 416.77500283 234.41144943 419.22743797 C234.44995258 440.74456853 234.03536839 460.35813254 218.29296875 476.8125 C215.05598739 479.90059125 211.76448643 482.58432753 208 485 C207.44570313 485.37769531 206.89140625 485.75539063 206.3203125 486.14453125 C193.22488372 493.91448566 174.93208837 492.4075771 160.33984375 492.29296875 C158.21180015 492.2873583 156.08375263 492.28309507 153.95570374 492.28010559 C148.41393928 492.2687708 142.87241896 492.2394044 137.33074951 492.20599365 C131.65217387 492.17504467 125.97355794 492.16154773 120.29492188 492.14648438 C109.19650861 492.11452141 98.09827478 492.06346641 87 492 C86.99761165 491.25622825 86.99522329 490.51245649 86.99276257 489.7461462 C86.93344611 471.58997933 86.85779067 453.43394647 86.76428509 435.27792263 C86.71945302 426.49754988 86.68000985 417.71721655 86.65356445 408.93676758 C86.63048185 401.27749356 86.59697079 393.61834563 86.55129844 385.95917183 C86.52750356 381.9093465 86.50868537 377.85964498 86.50238609 373.80975151 C86.49627231 369.98556546 86.47605051 366.16169562 86.44572449 362.33762741 C86.43704374 360.94586331 86.43320056 359.55405771 86.43499184 358.16226768 C86.45718083 332.93103396 78.39892414 309.68663097 60.60546875 291.57421875 C59.31576172 290.29998047 59.31576172 290.29998047 58 289 C57.35675781 288.34644531 56.71351563 287.69289063 56.05078125 287.01953125 C35.5268417 267.56408313 8.70173878 264.47178539 -18.23339844 264.60888672 C-21.99190571 264.62496537 -25.74933787 264.60897459 -29.5078125 264.58984375 C-41.65331303 264.5786813 -53.25774246 264.64993813 -65 268 C-66.18940186 268.32846924 -66.18940186 268.32846924 -67.40283203 268.66357422 C-81.97355553 273.06675818 -94.2703783 281.28916923 -105 292 C-105.68449219 292.67289062 -106.36898437 293.34578125 -107.07421875 294.0390625 C-123.91747705 311.70959282 -130.46287138 335.24452054 -130.43237305 359.17529297 C-130.44141707 360.63547581 -130.45175062 362.09565113 -130.46325684 363.55581665 C-130.49054365 367.47223886 -130.50007223 371.38851597 -130.50611091 375.30502081 C-130.51556934 379.41565407 -130.54177799 383.52618203 -130.56611633 387.63674927 C-130.60958143 395.39944189 -130.63825058 403.16211384 -130.66143972 410.92489064 C-130.68859935 419.77154119 -130.73250365 428.61808474 -130.77772844 437.4646585 C-130.87028797 455.64304895 -130.9420992 473.82146774 -131 492 C-143.24047702 492.06986501 -155.48090569 492.12299524 -167.72154236 492.15543652 C-173.40688173 492.17101572 -179.09208352 492.19211065 -184.77734375 492.22631836 C-190.27573985 492.25919035 -195.77400458 492.27691107 -201.27249146 492.28463173 C-203.35818547 492.2901257 -205.44387324 492.30085223 -207.5295105 492.31719017 C-228.24840436 492.47286756 -247.05681645 491.4317653 -262.81640625 476.27734375 C-279.19085224 459.1998804 -278.30102285 438.14902745 -278.29052734 415.95507812 C-278.29651885 413.42255964 -278.30332582 410.89004298 -278.31088257 408.35752869 C-278.32665817 402.21808271 -278.33298789 396.07869323 -278.33410732 389.93922889 C-278.33506163 384.94536604 -278.33919084 379.95151574 -278.34550858 374.95765686 C-278.36309225 360.76789018 -278.37235135 346.57815359 -278.37084763 332.38837594 C-278.37076772 331.62550973 -278.3706878 330.86264352 -278.37060547 330.07666016 C-278.37052371 329.31285249 -278.37044195 328.54904482 -278.37035771 327.76209146 C-278.36954447 315.3785501 -278.38869925 302.99513027 -278.4168822 290.61162406 C-278.44565897 277.86573122 -278.45942003 265.11989759 -278.45769465 252.37397146 C-278.45703265 245.23022408 -278.46244174 238.08660431 -278.48405075 230.94288635 C-278.50424245 224.22534933 -278.50354026 217.50812577 -278.48901749 210.79055977 C-278.48693176 208.3320177 -278.49161605 205.87345867 -278.5037384 203.4149456 C-278.59101353 184.48218791 -277.33989636 167.61887507 -263.6875 153.0625 C-257.42662789 147.1296676 -250.33808057 142.36822169 -243.22460938 137.5234375 C-239.68320847 135.09824636 -236.18778802 132.6089691 -232.6875 130.125 C-223.99404837 123.98275601 -215.2716043 117.88201546 -206.54833984 111.78222656 C-202.3645694 108.85623267 -198.18235476 105.9280169 -194 103 C-192.33334098 101.83332241 -190.66667431 100.66665575 -189 99.5 C-187.7625 98.63375 -187.7625 98.63375 -186.5 97.75 C-164 82 -141.5 66.25 -119 50.5 C-118.1752417 49.92266113 -117.3504834 49.34532227 -116.50073242 48.75048828 C-114.83165493 47.58215033 -113.16254678 46.41385616 -111.4934082 45.24560547 C-107.36337662 42.35486511 -103.23385554 39.46340146 -99.10546875 36.5703125 C-94.96327655 33.66768831 -90.81835651 30.76898401 -86.67285156 27.87109375 C-83.80799851 25.86559194 -80.94703628 23.85460344 -78.0859375 21.84375 C-26.71834758 -14.18712928 -26.71834758 -14.18712928 0 0 Z " fill="#000000ff" transform="translate(278,12)"/>
<path d="M0 0 C6.44750038 -0.09402366 12.88837391 -0.06515619 19.33544922 0.04589844 C20.16705566 0.0584668 20.99866211 0.07103516 21.85546875 0.08398438 C39.53845888 0.43343649 53.50606587 4.36380188 66.64794922 16.85839844 C81.26978484 32.22175346 82.50777266 49.71635206 82.44897461 69.984375 C82.44866744 71.3575223 82.44880318 72.73066976 82.44933987 74.10381699 C82.44956337 77.74338898 82.44381563 81.38292733 82.43672943 85.02249146 C82.43098625 88.45200697 82.43076371 91.88151476 82.43005371 95.31103516 C82.42483006 105.30599395 82.4108688 115.30094663 82.39794922 125.29589844 C82.37732422 147.65339844 82.35669922 170.01089844 82.33544922 193.04589844 C33.49544922 193.04589844 -15.34455078 193.04589844 -65.66455078 193.04589844 C-65.70580078 170.77089844 -65.74705078 148.49589844 -65.78955078 125.54589844 C-65.80775879 118.53919922 -65.8259668 111.5325 -65.84472656 104.31347656 C-65.85375977 95.68945313 -65.85375977 95.68945313 -65.85543823 91.63903809 C-65.85728491 88.83887495 -65.86471261 86.03878936 -65.8757019 83.23864746 C-66.05595755 35.08632056 -66.05595755 35.08632056 -51.66455078 19.04589844 C-51.04580078 18.3459375 -50.42705078 17.64597656 -49.78955078 16.92480469 C-38.97453453 5.39024098 -25.46773291 0.84569929 -9.95166016 0.20141602 C-6.63483618 0.10302979 -3.31772838 0.0571498 0 0 Z " fill="#f8ab38ff" transform="translate(247.66455078125,310.9541015625)"/>
</svg>
